<?xml version="1.0" encoding="utf-8"?>
<!-- Generator: Adobe Illustrator 24.0.3, SVG Export Plug-In . SVG Version: 6.00 Build 0)  -->
<svg version="1.1" xmlns="http://www.w3.org/2000/svg" xmlns:xlink="http://www.w3.org/1999/xlink" x="0px" y="0px"
	 viewBox="0 0 241.2 310.8" style="enable-background:new 0 0 241.2 310.8;" xml:space="preserve">
<g id="all_text">
	<path d="M113.5,114.4c0.2-11.3,0.6-35.4,0.6-36c0-2.1,0.1-4.1,0.1-6.2c0-4.1,0-8.2,0.1-12.3c0-3.6,0.2-7.1,0.2-10.7
		c0.1-6.1,0.2-12.2,0.3-18.3c0.1-3.6-0.5-8.3,2.2-11.1c2.8-2.8,7.1-4.5,10.9-3.5c5.7,1.5,6.4,9.2,6.4,12.1c0,4-0.1,8-0.2,12.1
		c-0.1,5.4-0.3,10.7-0.3,16.1c-0.1,4.1,0,8.1,0,12.2c0,3.2-0.2,6.4-0.2,9.7c0,4,0.1,8,0,12c0,6.8-0.1,13.5-0.2,20.3
		c0,1.7,0.5,3.5,0.1,5.1c-0.4,1.9-1.2,3.9-2.3,5.5c-2.2,3.1-5.2,5-9,5.6c-0.4,0.1-0.9-0.2-1.3-0.4c-1.4-0.7-3.1-1.2-4.1-2.3
		c-1.5-1.5-2.5-3.5-3.7-5.1L113.5,114.4z M112.3,119c-1.3,2.1-4.4,2.8-7.6,1.3c-2.4-1.1-4-3.1-4.8-5.4c-0.5-1.7,0.1-23.1,0.1-26.5
		c0-2.4,0.2-14.8,0.3-18.6c0.1-5.2,0.5-45.7,0.5-47.4c0-2.7,0.6-6.4,3.3-7.7c3.6-1.6,7.1,1.5,7.8,4.9c0.2,0.8,0.1,1.6,0,2.4
		c0,0.2-0.3,0.5-0.5,0.5c-1.2-0.2-1.9-2.7-2.4-3.7c-0.2-0.3-0.3-0.5-0.6-0.7c-0.3-0.2-0.8-0.3-1.2-0.4c-3.1-0.4-2.9,2.6-3.1,4.8
		c-0.3,3.2-0.3,6.5-0.3,9.7c-0.1,7.8,0.1,15.6,0.3,23.4c0.1,2.9,0.2,5.8,0.3,8.7c0,2.3-0.2,29.9-0.4,32.6c-0.3,3.3,0,15.6,0.4,18.5
		c0,0.2,0,0.4,0,0.6c0.8,2.2,2.9,2.8,5.6,1.9c1.7-0.6,1.3-1.7,1.3-2.8c0-0.4-0.2-0.9-0.3-1.3c0.5,0.1,1,0.3,1.8,0.5L112.3,119z
		 M122.6,124.7c0.5-0.1,1-0.4,1.6-0.4c3.2-0.1,7.3-5.2,7.3-8.5c0.1-3.6,0.2-7.1,0.2-10.7c0-5.8,0-11.6,0-17.4c0-2.7,0-5.3-0.1-8
		c-0.1-6.1-0.4-12.2-0.3-18.3c0.1-6.2,0.8-12.4,0.8-18.6c0-6.8,0.7-13.6-0.4-20.4c-0.2-1.2-1.8-3.4-3-3.4c-2.2-0.1-4.5-0.3-6.6,0.1
		c-1.3,0.3-3.9,4.8-3.9,6c-0.1,4.9-0.2,9.8-0.4,14.8c-0.1,4.6-0.2,9.2-0.3,13.8c-0.1,6.4-0.1,12.9-0.2,19.3c0,4.3-0.2,8.7-0.2,13
		c0,4,0,8.1,0,12.1c0.1,3.8,0.2,7.6,0.3,11.4c0,1.9-0.4,9.4-0.4,9.3C117.1,118.8,119.4,125.2,122.6,124.7z"/>
	<path d="M62.4,31.5c0,2.1,0,4.2,0,6.2c0,3.2,0.1,6.4,0.1,9.6c0,4.3,0,8.7,0.1,13c0,2.6,0,5.2,0.1,7.8c0.1,3,0.4,6,0.7,9
		c0.2,2.6,0.4,5.3,0.6,7.9c0,0.8,0.1,1.8-0.3,2.4c-0.2,0.4-1.5,0.8-1.9,0.5c-1.1-0.9-2-2-3-3.1c-1.3-1.4-2.6-2.8-4.1-4
		c-1.2-1.1-2.7-1.9-3.9-3c-0.5-0.4-0.8-1.2-0.8-1.8c0.1-6.4,0.3-12.9,0.4-19.3c0.1-6.5,0-13,0-19.4c0-6.3,0-12.5,0-18.8
		c0-1.2-0.2-2.3-0.1-3.5c0.2-2,1-3.1,3.4-3.4c2.5-0.4,5.2-0.3,7.3,1.3c0.8,0.6,1.4,2,1.5,3.1c0.2,3,0.1,6.1,0.1,9.2
		C62.6,25.7,62.4,29.8,62.4,31.5z M59.2,80.3c0-0.5-0.1-1.1-0.1-1.7c0-6,0-12-0.1-18c0-5.7,0-11.3,0-17c0-8.3-0.1-16.5-0.1-24.8
		c0-2.9-0.7-3.9-3.2-3.8c-0.8,0-1.2,0.3-1.2,1.2c-0.1,4.2-0.3,8.4-0.4,12.7c-0.1,4.3,0.1,8.6,0.1,12.9c0,4.9-0.1,9.7-0.1,14.6
		c0,2.3,0,4.6,0,6.9c0,3.6,0,7.2,0.1,10.8c0,1.5,0.1,3,1.7,3.9C57,78.6,58,79.5,59.2,80.3z"/>
	<path d="M71.6,13.8c2.8,0.1,5.5,0.3,8.2,0.8c0.6,0.1,1.4,1.4,1.4,2.2c0.4,5.1,0.2,10.3,0.4,15.4c0.2,5.4,0.5,10.8,0.4,16.2
		c-0.1,2.9-0.3,5.7-0.5,8.6c-0.2,2.3-0.3,4.7-1.1,6.9c-1,2.8-1.8,7.4-5.3,7.6c3.5,2,4.7,4.9,4.3,8.8c-0.4,3.6-0.6,7.3-0.7,11
		c0,0.8,0.4,8.5-0.7,8.5c-0.7,0-1.5-0.2-2.1-0.6c-1.1-0.8-2.2-1.7-3.1-2.7c-1-1.2-2.6-2.6-3.1-4.1c-0.6-1.7-0.3-4-0.3-5.7
		c-0.2-7.7,0-15.3,0-22.9c0-4.8,0-9.5,0-14.3c0-6.1,0-12.1,0-18.2C69.5,26.7,68.2,13.6,71.6,13.8z M71.9,68.9c0.6-0.3,1.4-0.4,1.8-1
		c6.4-8.7,5.2-39,4.1-47.6c-0.5-3.7,0.4-3.6-3.3-3.9c-0.4,0-2.1-0.3-2.1,0.7c0,7.5,0.6,14.9,0.6,22.4C73,41.9,71.8,68.3,71.9,68.9z
		 M77.2,97.1c0-3.4-0.1-6.4,0-9.3c0.1-3.2,0.4-6.4,0.5-9.6c0-1.8-0.9-3.3-2.3-4.3c-0.7-0.5-1.8-0.5-2.6-0.4c-0.2,0-0.4,1.2-0.5,1.9
		c-0.1,2.2-0.1,4.4,0,6.5c0.1,3.4-0.1,6.7,0.5,10.1c0.3,1.7,1,2.7,2.1,3.7C75.3,96.1,76,96.4,77.2,97.1z"/>
	<path d="M89.6,83.8c0.2,1.3,0.2,5.9,0.2,6.6c0,4.7-0.1,9.3,0.1,14c0.1,1,1.6,1.9,2.5,2.8c0,0,0,0,0,0c1.9,1.1,4.1,1.9,2.9,4.9
		c-1.1-0.5-2.3-0.8-3.4-1.5c-2-1.3-3.9-2.9-5.9-4.1c-1.1-0.7-1.1-1.4-1-2.6c0.3-2.6,0.1-5.1,0.1-7.7c0-5.2,0.1-10.4,0.2-15.6
		c0-9.3,0-18.6,0-27.9c0-5.6,0.1-11.2,0.1-16.9c0-4.1-0.1-8.1-0.1-12.2c0-2.6-0.1-5.2-0.1-7.8c0-1.1,0.6-2.2,1.7-2.2
		c7.8,0.2,9.2,1.1,12.3,1.8c1.8,1.7,1.5,1.2,0.2,3.2c-0.3,0.6-4-0.7-4.6-1c-1.5-0.7-4-0.8-4.9-1.2c0,2.2,0,3.9,0,5.6
		c0,3.9-0.1,7.8-0.1,11.7c0,5,0,9.9,0,14.9c0,6.5-0.1,13-0.1,19.5c0,3.5-0.1,7,0,10.5c0,0.5,0.7,1.2,1.3,1.5c1.6,1.2,3.4,2.2,5,3.4
		c3.4,1.9,1.9,3.4,0.5,4.1C94,87.3,92,84.1,89.6,83.8z"/>
	<path d="M188.6,42.8c2-1.9,3.9-3.5,5.7-5.2c0,0-0.1,0-0.1,0c0.3-0.3,0.7-1,0.9-0.9c1.5,0.4,0.9-0.9,0.9-1.2c0.1-3.3,0.1-6.6,0-9.9
		c0-3-0.1-5.9-0.1-8.9c0-0.4,0.3-0.8,0.6-1.1c0.1-0.1,0.7-0.1,0.8,0.1c0.2,0.3,0.3,0.8,0.3,1.1c0,1.7,0,3.3,0,5c0,4-0.1,8,0,12
		c0,1,0.5,2,0.6,3c0,0.8-0.5,1.6-0.5,2.5c0,4.2,0.1,8.3,0.1,12.5c0,6.4,0,12.9,0,19.3c0,0.8,0.2,1.6,0.2,2.4c-0.1,0.5-0.5,1-0.7,1.5
		c-0.4-0.5-1-1-1-1.5c-0.1-1.8,0.1-3.6,0.1-5.4c0-3.3-0.1-6.6-0.1-9.9c0-5.8-0.1-11.6-0.1-17.4c0-0.4,0-0.9-0.1-1.7
		c-2.1,1.5-3.9,3.1-5.9,4.2c-1.7,0.9-1.6,2.3-1.7,3.8c-0.1,10-0.2,20-0.3,30c0,0.4-0.4,0.9-0.7,1.2c-0.2,0.2-0.9,0.2-0.9,0.1
		c-0.2-0.4-0.3-0.9-0.3-1.4c0-2.3,0.1-4.5,0.2-6.8c0.1-2.6,0.2-5.3,0.3-7.9c0-2.6-0.1-5.3,0-7.9c0.1-6.3,0.4-12.6,0.5-18.9
		c0.1-5.6,0.1-11.3,0.1-16.9c0-0.4,0-0.8,0-0.7c-1.5,0-2.9,0.2-4.3,0.1c-1.2-0.1-1.6,0.4-1.6,1.3c-0.1,2-0.1,4-0.1,6
		c-0.1,3.3-0.2,6.6-0.3,9.8c0,2.1,0,4.1,0.1,6.2c0,1.1,0,2.1,0,3.1c-0.1,0,0.1-0.1,0,0c0,2.4-0.1,5-0.1,7.6
		c-0.1,5.9-0.2,11.7-0.3,17.6c-0.1,4.8-0.1,9.7-0.2,14.5c0,1.9,0.1,3.8,0.1,5.7c0,0.3-0.2,0.8-0.5,1c-0.3,0.1-0.8,0-1.1-0.3
		c-0.2-0.1-0.1-0.6-0.2-0.9c0-0.3,0.1-0.7,0-0.8c-1.1-1-0.2-2.1-0.1-3.1c0.2-2.5,0.4-5.1,0.4-7.7c0.1-4.9,0.1-9.7,0.1-14.6
		c0.1-5.9,0.1-11.7,0.2-17.6c0-3.3,0.2-6.7,0.2-10c0.1-5.5,0.1-11,0-16.4c0-0.4-0.5-1.1-0.9-1.3c-1.4-0.5-2.9-0.7-4.3-1.1
		c-0.3-0.1-0.6-0.4-0.9-0.6c0.3-0.2,0.7-0.6,1-0.6c3.4,0,6.8,0.1,10.2,0.1c1.1,0,2.1-0.4,3.2-0.4c0.5,0,1.3,0.6,1.3,0.9
		c-0.1,5.4-0.3,10.9-0.5,16.3C188.5,35.8,188.6,39,188.6,42.8z"/>
	<path d="M30.4,12.4c0.2-0.1,0.4-0.3,0.8-0.4c1.3-0.4,3.1-0.1,4.5-0.1c4-0.1,8.1-0.3,12.1-0.2c0.4,0,1,0.5,1.1,0.8
		c0.6,2.5,0.5,2.5-2,2.4c-1.2,0-2.4,0.2-3.6,0.4c-1.9,0.3,0,23.4,0.1,25.9c0.4,10.1,1,20.3,1,30.5c0,0.3-0.3,0.9-0.5,1
		c-3.5,0.9-3.3-1.7-3.4-4.4c-0.5-17-1-33.9-1.1-50.9c0-2.2-0.2-2.4-2.4-2.4c-1.9,0-3.8,0.2-5.8,0.1c-0.3,0-0.8-0.5-0.9-0.8
		C30,13.3,29.9,12.8,30.4,12.4z"/>
	<path d="M157,95.5c-0.2-5.6-1.8-67.3-1.9-70.2c0-1.9,0-3.9-0.3-5.8c-0.1-0.5-1-1-1.6-1.5c-0.2,0.4-0.6,0.8-0.6,1.3
		c-0.1,0.7-0.5,12.8-0.8,18.2c-0.3,5.6-0.5,11.1-0.8,16.7c-0.3,6-0.8,12-1.1,18c-0.3,6.1-0.6,12.3-0.9,18.4c-0.2,3.5-0.3,7-0.5,10.5
		c-0.4-1.7-0.5-3.4-0.7-5.1c-0.3-2.4-0.7-4.7-1-7.1c-0.3-2.5-0.3-5-0.6-7.5c0-0.2-0.1-0.3-0.2-0.5c0-0.8-0.1-1.6-0.1-1.7
		c-0.3-3.4-0.5-6.8-0.9-10.2c-0.2-2.3-2.5-24.5-3.3-33.2c-0.4-4.1-1.8-16.1-2.1-18c-0.2,0-0.5,0-0.7,0c-0.1,0.5-1.3,1-1.3,1.5
		c0,3.4-0.1,6.8-0.1,10.2c-0.2,15.3-0.2,30.7-0.4,46c-0.2,13.6-0.1,27.3-0.4,40.9c0,2.1-0.1,4.1-0.1,6.2c0,0.4,1.7,0.8,2,1.2
		c0.3-0.6,0.9-1.1,0.9-1.7c-0.1-3.2-0.3-6.5-0.4-9.7c0-3.6,0.1-7.1,0.2-10.7c0-4.7,0-9.4,0-14.2c0-5.6-0.2-11.1-0.2-16.7
		c0-3.2,0.2-6.4,0.3-9.7c0.1-2.9,0-5.8,0-8.7c0.1-4.9,0.2-9.7,0.2-14.6c0-2.6,0-5.2,0-7.7c0.3,1.4,0.4,2.8,0.5,4.2
		c0.6,6.3,1.3,12.6,1.9,18.9c0.6,6,0.8,12,1.3,17.9c0.2,2.6,0.8,5.1,1.1,7.6c0,0.1,0.2,0.7,0.3,1.3c-0.1,0.1-0.1,0.1-0.2,0.2
		c0.3,2.4,0.6,4.7,0.9,7.1c0.4,3.7,0.7,7.5,1,11.2c0.2,2.1,0.3,4.1,0.6,6.2c0,0.2,1.1,0.5,1.2,0.4c0.5-0.9,1.2-1.9,1.4-2.9
		c0.3-1.8,0.3-3.6,0.4-5.4c0.3-6.4,1.6-31.5,1.6-32.1c0.4-6.2,0.7-12.5,1-18.7c0.3-5.7,0.6-11.5,0.9-17.2c0,0,0.1,0,0.1,0
		c0,0.5,0.1,1,0.1,1.5c0,5.2,0,10.4,0.1,15.6c0.1,5.3,0.7,22.8,0.8,26.2c0.2,5.6,0.8,33.7,0.8,35.3c0,0.5,0.5,0.9,0.8,1.4
		c0.2-0.2,0.7-0.5,0.7-0.7c0.1-1,0.2-2.1,0.2-3.1C157.3,102.1,157.1,98.8,157,95.5z"/>
	<path d="M168.7,17.2c-0.7,0.2-1.4,0.5-2,0.6c-1.2,0.2-2.4,0.2-3.6,0.2c-1.3,0-1.9,0.4-1.9,1.8c0.1,4.6,0,9.3,0.1,13.9
		c0,5.9,0.1,11.9,0.1,17.8c0,3.9,0,7.8,0,12.3c1.6-1.3,2.9-2.4,4.2-3.4c0.5-0.4,0.9-1,1.5-1.4c0.2-0.2,0.7-0.1,1-0.2
		c0,0.4,0.1,0.9-0.1,1.2c-1.1,1.1-2.3,2-3.4,3.1c-0.9,0.8-1.9,1.7-2.7,2.5c-0.2,0.2-0.2,0.5-0.2,0.7c-0.1,4-0.3,7.9-0.2,11.9
		c0.1,4.4,0.4,8.7,0.5,13.1c0,2.2-0.3,4.4-0.3,6.6c0,1.5,0.3,3,0.6,4.8c2.3-1.7,4.6-3.4,6.9-5.1c0.2,0.2,0.4,0.5,0.6,0.7
		c-0.8,0.9-1.7,1.8-2.6,2.6c-1.4,1.3-2.9,2.5-4.4,3.7c-0.5,0.4-1.3,0.5-1.9,0.8c-0.1-0.6-0.4-1.2-0.4-1.7c0-4.5,0-9.1,0-13.6
		c-0.1-6.3-0.2-12.5-0.3-18.8c0-2.9,0-5.7,0-8.6c0-7.4,0-14.8,0-22.2c0-5.7-0.1-11.4-0.1-17.1c0-2,0-4.1,0.4-6.1
		c0.1-0.5,1.2-1.3,1.8-1.3c2.2,0,4.4,0.3,6.6,0.5C168.7,16.6,168.7,16.9,168.7,17.2z"/>
	<path d="M144.1,241.3c-0.4,1.4-0.7,2.4-0.8,3.3c0,0.4,0.8,1.2,1.2,1.1c1-0.1,2.8-0.5,2.8-0.9c0.2-1.8-0.1-3.6-0.4-5.4
		c-1.1,1.5,1,3.7-1.2,4.8c-0.1-1.8-0.3-3.6-0.4-5.5c0.3,0,0.7-0.1,1.3-0.1c-0.2-0.3-0.4-0.6-0.6-0.8c-3.2,2.1-5.5,1.5-7.6-1.7
		c-0.4-0.7-1.3-1.1-1.9-1.6c-0.3-0.2-0.5-0.6-0.7-0.8c0.3-0.2,0.8-0.7,1-0.6c0.8,0.4,1.8,0.9,2.3,1.6c1.3,1.9,3.2,2.3,5.2,2.3
		c0.2,0,0.5-1.6,0.5-2.4c-0.1-1.1-0.6-2.2-0.7-3.3c0-0.4,0.4-0.8,0.7-1.3c0.4,0.4,1,0.7,1.3,1.2c0.3,0.7,0.4,1.5,0.8,2.2
		c0.3-1.2,0.6-2.4,0.9-3.6c0.2-1,2.3-1.6,3.3-1c2.7,1.7,3.7,4.2,3.4,7.2c-0.1,0.7-0.6,1.5-1,2.1c-0.5,0.7-1.2,1.6-2,1.8
		c-0.9,0.1-1.9-0.5-2.8-0.7c0.1,0.9,0.4,2.1,0.5,3.3c0.1,1.4,0.4,3.2-1,3.7c-1.6,0.6-3.5,0.4-5.2,0.4c-0.1,0-0.3-1.1-0.4-1.7
		C142,243.6,142.8,242.5,144.1,241.3z M153,234.7c-0.7-0.9,0.3-2.8-2.1-3.4c-1.5-0.4-2.3-0.3-2.6,1.1c-0.2,1.1,0.2,2.3,0.2,3.4
		c0,1.6,1.1,2.1,2.3,2.1C152.1,238,153.1,236.4,153,234.7z"/>
	<path d="M203.9,16.6c0.4,0.8,0.7,1.1,0.7,1.4c0,3.5,0,7,0,11c0.6-0.7,0.8-1.1,1.2-1.3c0.7-0.4,1.4-0.6,2.1-1c0.1,0,0.2,0,0.2,0
		c0.6-0.2,1.5-1.3,1.8-0.1c0.2,0.6-0.9,1.6-1.6,2.2c-0.8,0.7-1.9,1.1-2.8,1.8c-0.4,0.3-0.8,0.9-0.8,1.4c0,3.5,0.1,7,0.1,10.5
		c0,0.5-0.2,1.1-0.3,1.9c0,0.2,0.3,0.8,0.3,1.4c0.1,2.2,0.1,4.4,0.1,6.6c0,2.7,0,5.5,0,8.5c1-1.5,1.8-2.8,2.7-4.1
		c0.3-0.4,0.8-0.6,1.2-0.8c0.3-0.1,0.6,0.2,0.9,0.3c-0.2,0.4-0.3,0.9-0.5,1.3c-1.5,2-3,4-4.6,5.9c-0.2,0.2-0.6,0.4-0.8,0.3
		c-0.3-0.2-0.7-0.6-0.7-0.9c0-2.5,0.2-5,0.2-7.5c0-3.3,0-6.6,0-9.9c0-6.3,0-12.6,0-18.9c0-3.8-0.2-7.6-0.3-11.4c0-0.4,0.6-1,0.9-1
		c1.4-0.2,2.9-0.2,4.3-0.2c0.3,0,0.6,0.5,0.9,0.7c-0.3,0.3-0.6,0.7-0.9,0.8c-0.3,0.2-0.8,0-1.2,0.1C206.1,16,205,16.3,203.9,16.6z"
		/>
	<path d="M201.2,288.1c0-0.5-0.1-1.1,0-1.6c0.1-1.2,0.4-2.3,0.6-3.8c-0.9,0.8-1.6,1.5-2.4,1.9c-2,1.3-3.9,0.9-4.8-1.3
		c-1.1-2.5-1.8-5.2-2.6-7.8c-0.1-0.2,0.4-0.7,0.6-1c0.3,0.3,0.9,0.5,1,0.8c0.7,2.1,1.2,4.2,1.8,6.3c0.6,2.3,2.4,2.7,4.2,1.2
		c2.6-2.2,3-5.1,3.2-8.2c0-0.5,0.7-1,1.1-1.6c0.2,0.5,0.7,1.1,0.6,1.6c-0.4,2.9-1,5.8-1.4,8.7c-0.6,4.4-0.8,8.9-1.6,13.3
		c-0.4,2.2-1.4,4.5-2.6,6.4c-2.2,3.5-8.7,1.6-10.4-1.9c-1.5-3-0.8-5.9,1.9-7.9c0.2-0.2,0.6-0.1,0.9-0.2c-0.1,0.3-0.1,0.6-0.2,0.8
		c-1.3,1.8-2.7,3.6-1.6,6.1c0.9,2.2,3.3,3.6,5.9,3.4c2.1-0.2,3.7-1.9,4.2-4.2c0.5-2.6,1-5.2,1.4-7.9c0.1-0.5-0.2-1.1-0.3-1.5
		c0.1-0.5,0.2-0.9,0.3-1.4C201.1,288.4,201.2,288.3,201.2,288.1z"/>
	<path d="M123.1,254.8c0.4-0.9,0.9-1.8,1-2.7c0.2-0.9,0-1.9-0.1-2.9c-0.1-1.1-0.4-2.2-0.7-3.3c-0.6,0-1.1,0-1.8,0
		c0.5,2-0.3,3.5-1.7,4.6c-1.3,1-2.7,0.5-6-1.6c0-0.6,0-1,0-1.4c-0.1-1.1-0.4-2.1-0.5-3.2c-0.1-2.2,0.7-3.1,2.9-3.4
		c1-0.1,2-0.2,3-0.1c0.4,0,0.8,0.6,1.2,0.9c-0.4,0.1-0.8,0.3-1.2,0.4c-0.2,0.1-0.5,0.2-0.7,0.2c0.3-0.3,0.6-0.5,1-0.8
		c0.6,1.1,1.1,2.3,1.6,3.3c0.8-0.5,1.5-1,2.5-1.6c0.5-2,0.1-5.3,4-5.6c0.9-0.1,2,0.2,2,2c-0.8-0.2-1.5-0.5-2.1-0.4
		c-0.7,0.1-1.5,0.5-1.9,1c-0.5,0.7-0.5,1.7-0.8,2.8c1.5-0.4,2.6-0.7,3.7-1c0.3,2.1-1.1,2.4-2.4,2.6c-1.2,0.1-1.1,0.7-1.1,1.5
		c0.3,3.6,0.5,7.2,0.7,10.8c0.1,1.3-0.6,1.6-1.7,1.6c-1.7,0-3.8-1.3-2.9-3.1c0.5,0.4,0.9,0.8,1.4,1.1l0.1,0.1c0.5,0.2,1,0.4,1.6,0.6
		c0.1-1,0.2-2.1,0.4-3.3c-0.6,0.4-0.9,0.6-1.2,0.8C123.2,254.9,123.1,254.9,123.1,254.8z M119.8,245.8c-0.1-0.1-0.3-0.2-0.4-0.3
		c-0.5-1.5-1.9-1.7-3.2-2.2c-1-0.4-1.5-0.1-1.5,0.9c0,1.2,0,2.4,0.4,3.5c0.2,0.5,1.3,0.7,2,1c0.2,0.3,0.4,0.9,0.5,0.9
		c0.8-0.3,2-0.5,2.4-1.1C120.3,247.8,119.9,246.7,119.8,245.8z"/>
	<path d="M198,208.8c-1.5-0.3-3.5,0.5-4.2-1.6c-0.3-0.9-0.2-1.9-0.3-2.9c0.2,0,0.4,0,0.6-0.1c0,0.3,0.1,0.7,0.1,1
		c0,1.2,0.4,2.1,1.7,2.4c1.4,0.3,2-0.7,2.1-1.8c0.2-1.9,0.3-3.8,0.2-5.6c0-1.2-0.4-2.4-0.7-3.7c-0.1,0.1,0.2-0.1,0.1-0.1
		c-0.5-1.5-0.9-3-1.7-4.3c-0.3-0.5-1.3-0.5-2.1-0.6c-0.3,0-0.7,0.4-1.1,0.5c-0.5,0-0.9-0.1-1.4-0.2c0.3-0.4,0.4-1,0.8-1.2
		c0.6-0.4,1.5-0.5,1.8-1c0.4-0.7,0.6-1.6,0.5-2.4c-0.2-2.4,0.2-4.6,1.6-6.6c0.4-0.7,1.2-1.1,1.8-1.6c0.7,1.1,2.3-0.1,3,1.6
		c0.9,2.4,1.1,3-0.8,3.9c-0.2,0.1-0.5,0-0.8,0c0.1-0.3,0.2-0.5,0.2-0.8c0.1-0.7,0.1-1.5,0.2-2.2c-0.9,0-1.9-0.3-2.6,0.1
		c-1.1,0.7-1.9,4.7-1.3,5.8c0.1,0.2,1,0.4,1.2,0.2c1.6-1.1,3.1-2.2,4.6-3.3c0.4-0.3,0.9-0.3,1.3-0.4c0,0.6,0.2,1.3-0.1,1.6
		c-1,1-2.1,2-3.4,2.7c-2.1,1.1-2.8,2.1-1.8,4.4c1.8,4.4,2.3,9,1.6,13.7C199.3,207.1,198.5,207.9,198,208.8z"/>
	<path d="M106.2,286.6c-0.4,3.2,0.8,6.7-0.2,10.1c-0.3,0-0.5,0.1-0.8,0.1c-0.3-1.3-0.7-2.6-0.7-3.9c-0.1-3.9,0-7.9,0-11.8
		c0-1-0.2-2-0.2-2.6c1-0.4,1.4-0.6,1.9-0.8c0.5-0.2,1.1-0.4,1.6-0.4c4.2-0.4,7.5,3.7,6.2,7.7c-0.1,0.3-0.1,0.5-0.2,1
		C111.3,286.1,108.8,286.3,106.2,286.6z M106.2,285.1c2-0.1,3.5-0.2,5-0.3c1.4-0.1,2-0.9,1.7-2.3c-0.2-1.5-2.2-3.5-3.8-3.7
		c-1-0.2-2.4-0.5-2.8,0.8c-0.4,1.1-0.6,2.5-0.1,3.4C106.6,283.6,107.4,283.9,106.2,285.1z"/>
	<path d="M94.5,235.9c0,0.3,0.1,0.7,0.1,1.3c2-1.7,3.9-1.2,5.6,0.3c0.2,0.4,0.6,1,0.5,1.5c-0.2,1.8-0.5,3.7-0.9,5.5
		c-0.3,1.3-1,2.4-1.6,3.6c-0.6,1-1.3,1.9-2,2.9c-0.3-0.1-0.5-0.2-0.8-0.3c0.1-0.7,0.1-1.5,0.4-2.2c0.9-2.6,2-5.2,2.8-7.8
		c0.2-0.6-0.1-1.9-0.4-2c-0.8-0.3-1.9-0.3-2.7,0.1c-2.4,1.1-3.1,3.5-3.8,5.8c-0.5,1.4-1.4,1.8-2.6,1.2c-0.2-0.1-0.5-0.8-0.4-1
		c0.3-0.4,0.7-0.6,1-0.8c0.2-0.6,0.2-1.5,0.5-1.7c1.7-0.8,1.7-2.4,1.7-3.8C92.1,236.9,92.2,235.6,94.5,235.9z"/>
	<path d="M164.2,215c2.2-0.4,4,0.3,4.7,2.5c0.7,2,0,3.7-2.3,5.1c2.1,0.6,3.8,1.1,5.7,1.7c0.1,0.5,0.3,1.3,0.7,2.6
		c-2.8-1.1-5-1.9-7.2-2.8c0.4,2,0.7,4.2,1.1,6.4c-0.3,0.1-0.5,0.2-0.8,0.3c-0.3-0.5-0.8-1-1-1.5c-0.8-2.8-1.6-5.5-2.4-8.3
		c-0.3-1.1-0.7-2.3-0.9-3.4c-0.3-1.4,1.2-1.3,1.8-1.9c0.2-0.2,0.8-0.1,1.2-0.2C164.7,215.4,164.4,215.2,164.2,215z M167,220.6
		c0.9-1.3,1.1-2.6-0.2-3.7c-0.4-0.3-1.7,0-2.1,0.4c-1.2,1.3-0.3,2.7,0.1,3.9c0.8-0.5,1.5-0.9,2.2-1.4C167,220.2,167,220.5,167,220.6
		z"/>
	<path d="M87.1,278.1c2.5-2.8,5.6-1.3,6.8,1.3c0.6,1.4,0.9,3,1.2,4.6c0.1,0.5-0.6,1-0.9,1.5c-0.2-0.5-0.7-1.1-0.6-1.5
		c0.6-2.5-1-4-2.3-5.6c-0.6-0.8-2.9,0.2-3.1,1.3c-0.2,1.4,0,2.9-0.1,4.3c0,0.5-0.5,1-0.8,1.5c-0.3-0.4-0.7-0.8-0.8-1.2
		c-0.1-0.7-0.1-1.5,0-2.2c0.1-1.5-1.2-3.3-2.5-3.6c-1.7-0.4-2.3,1-2.9,1.9c-0.5,0.9-0.5,2.1-0.5,3.3c0,1,0.2,2,0.2,2.9
		c0,0.2-0.5,0.6-0.8,0.6c-0.3,0-0.7-0.4-0.7-0.6c-0.2-1.2-0.3-2.4-0.4-3.7c-0.1-1.5-0.3-3.1-0.3-4.6c0-0.3,0.4-0.7,0.5-1
		c0.3,0.2,0.5,0.5,0.8,0.8c0.1,0.1,0.1,0.5,0.3,0.5c0.2,0.1,0.5,0,0.6-0.1c0.2-0.1,0.3-0.3,0.5-0.5C83.1,276,85.4,276.1,87.1,278.1z
		"/>
	<path d="M52.1,217L52.1,217c0.1,0.4,0.5,1.1,0.4,1.1c-2,1.3-4.9,1.8-6.2-0.8c-0.9-1.9-1-4-0.2-6c0.5-1.1,0.8-2.6,1.7-3.1
		c1.5-1,3.4-1.7,5.2-2.1c0.8-0.2,2.4,0.6,2.6,1.2c0.4,1.1,0,2.4-0.2,3.7c0,0.2-0.9,0.4-1.3,0.3c-1.5-0.3-3.1-0.7-4.6-1
		c-0.2,0-0.7,0.2-0.7,0.3c-0.2,1.4-0.3,2.7-0.4,4.1c0,0.4,0,0.9,0.1,1.4 M50.9,208.5c1.3,0.2,2.6,0.5,4.3,0.8
		c-0.5-0.7-0.9-1.5-1.4-1.7C52.7,207.3,51.4,206.9,50.9,208.5"/>
	<path d="M70.3,224.5c0-0.7-0.1-1.3-0.3-1.9c-0.3-1-1-1.8-1.2-2.8c-0.3-3.5,3.9-2.9,4.3-2.8c0.8,0.2,1.8,0.4,2.3,1
		c0.8,0.9,0.9,2.1-0.3,2.9c-0.4,0.2-1,0.1-1.5,0.1c0.2-0.3,0.4-0.6,0.6-1c0.1-0.3,0.3-0.7,0.2-1.1c0-0.1-0.5-0.3-0.8-0.3
		c-1.1,0.1-3.5-1.2-3.3,1.4c0.6,1,1.5,1.9,1.8,3c1.3,4.8-1.2,7.6-6.2,7.7c-1.4,0-2.1-1-2.5-2.2c-0.4-1.4,0.9-3.9,2.4-4.7
		c1.2-0.4,1.1,1,1.2,1.1l-2,3.4C69.3,230.4,70.3,224.8,70.3,224.5z"/>
	<path d="M89.6,234.9c0.6,0.4,0.3,1.7-1.1,3c-1.8,1.6-4.1,1.7-6.3,1.6c-1.6-0.1-3.1-3.4-2.5-5.3c0.3-0.8,0.5-1.6,1-2.3
		c1.8-2.4,4.8-3.3,7.6-2.2c0.2,0.1,0.4,0.2,0.4,0.4c0.3,0.9,0.7,1.8,0.9,2.8C89.8,233.5,89.7,234.1,89.6,234.9z M84.4,237.5
		c-0.1,0,0.3,0.1,0.5,0c0.9-0.5,2-0.9,2.4-1.7c0.8-1.6-0.2-3-1.4-4c-0.4-0.4-1.6-0.4-2.1-0.1c-0.9,0.6-1.7,1.5-2.2,2.5
		C80.9,236.1,81.9,237.4,84.4,237.5z M88.7,233.6c0-0.1,0.1-0.1,0.1-0.2c-0.1-0.1-0.2-0.2-0.3-0.2c0,0.1-0.1,0.1-0.1,0.2
		C88.4,233.5,88.6,233.6,88.7,233.6z"/>
	<path d="M144.2,278.5c0.8,0.9,1.8,1.9,0.8,3c-0.7,0.7-1.9,1.1-3,1.3c-0.7,0.2-1.6-0.1-2.4,0c-0.4,0-0.7,0.3-1.1,0.5
		c0.3,0.4,0.6,1.3,0.9,1.3c1.3,0,2.6-0.2,3.9-0.3c1.1-0.1,2.2-0.1,3.4,0.2c-2.6,1.3-5.3,2.4-8.1,1.6c-0.9-0.3-1.3-2-2-3.1
		c0.1-0.1,0.3-0.2,0.4-0.2c-0.1,0-0.1-0.1-0.2-0.1c-0.6-0.3-1.2-0.6-1.8-0.9c0.7-0.3,1.4-0.5,2.1-0.8c0.3-0.1,0.7-0.1,0.8-0.3
		c1.5-3,1.7-3.1,4.9-2.4c0.2,0.1,0.5,0.1,0.7,0.2C143.7,278.4,144,278.5,144.2,278.5z M139.3,280.9c1.3,0.9,2.5,0.5,3.7,0
		c0.2-0.1,0.4-0.2,0.7-0.3c-0.2-0.2-0.3-0.5-0.5-0.6C141.9,279.2,140.2,279.6,139.3,280.9z"/>
	<path d="M182.3,212.2c0-0.9,0-1.2,0-1.6c-1.6,0.1-2.6-0.2-3.7-1.7c-0.8-1.1-0.7-1.2-0.2-2.1c0.4-0.7,0.4-1.6,0.6-2.5
		c0.2-0.8,0.2-1.7,0.5-2.4c0.3-0.7,1.2-1.8,1.4-1.7c0.9,0.4,2.3-0.3,2.7,1.4c0.8,3.5,0.9,3.5-2,5.8c-0.3,0.2-0.6,0.5-0.9,0.7
		c1.1,1.6,3.7,1,5.4-1.3c0.2,0.4,0.5,0.8,0.8,1.4C185.6,209.4,184.2,210.6,182.3,212.2z M179.8,206.3c0.2,0.1,0.4,0.2,0.6,0.3
		c0.8-0.7,1.8-1.2,2.3-2.1c0.3-0.4-0.3-1.3-0.5-2c-0.5,0.2-1.4,0.3-1.6,0.6C180.1,204.2,180,205.3,179.8,206.3z"/>
	<path d="M43.1,207.2c-0.4,0.7-0.9,1.3-1.3,2c-0.4,0.7-0.8,1.5-1.7,2.2c-0.1-0.6-0.4-1.3-0.3-1.8c1.2-3.4,0.1-6.8,0.2-10.2
		c0-0.7,0.4-1.3,0.6-2c0.3,0.1,0.6,0.1,0.8,0.2c0,2.8,0,5.6,0,7.8c2.5-2.2,5-4.6,7.7-6.8c0.8-0.7,2-1,3.1-1.3
		c0.3-0.1,0.7,0.5,1.1,0.7c0.1,0.1,0.1,0.1,0.2,0.2c0,0.4,0.1,0.8,0.1,1.3c-2.6-1.2-4.1,0.4-5.5,1.8c-1.4,1.4-2.6,3.1-3.8,4.7
		c-0.2,0.3-0.6,0.4-0.9,0.6C43.3,206.8,43.2,207,43.1,207.2z"/>
	<path d="M174.3,281.3c-0.6,0.3-1.3,0.6-1.9,0.9c0.6,0.9,1.1,2.2,1.9,2.6c2.1,0.8,4-0.1,5.1-2.2c0.1-0.2,0.5-0.4,0.7-0.5
		c0.1,0.3,0.3,0.5,0.3,0.8c0,0.3-0.1,0.7-0.3,1c-0.7,1.5-3.8,3-5.7,2.7c-1.5-0.2-3.1-1.9-3.5-3.7c-0.1-0.5-0.5-1-0.5-1.5
		c0-0.4,0.2-1,0.4-1.3c0.5-0.6,1.2-1.1,1.9-1.6c0.9-0.7,1.7-1.6,2.8-2.1c1.4-0.8,2.2,0.5,2.9,1.3c0.6,0.7,0.9,2.6,0.7,2.8
		c-1.1,0.6-2.5,0.8-3.8,1.1c-0.3,0.1-0.6,0-1,0C174.3,281.4,174.3,281.3,174.3,281.3z M172.7,280.1c1.6-0.1,3-0.2,4.3-0.3
		c0.3,0,0.7-0.4,0.7-0.6c-0.1-0.3-0.3-0.8-0.6-0.9C175.4,277.4,173.9,277.9,172.7,280.1z"/>
	<path d="M172.4,217.2c0.1,2,1.9,2.9,3.5,1.7c0.6-0.5,1.1-1.7,1-2.5c-0.1-0.7-0.9-1.6-1.6-1.9c-0.9-0.5-2.1-0.6-3.2-0.7
		c-2.4-0.2-3.4-1.7-4-3.6c-0.3-1,1.1-3.2,2.4-3.9c1.2-0.6,2.2-0.1,3.1,1.8c-0.5,0-0.9,0.1-1.2,0c-1.3-0.6-2.3-0.3-2.8,1
		c-0.4,1.1,0.7,2.5,2,2.7c0.8,0.1,1.6,0.3,2.5,0.2c1.9-0.1,2.8,1.1,3.6,2.5c1,1.8,0.8,3.5-0.7,4.9c-0.7,0.6-1.5,1.5-2.3,1.5
		c-0.9,0-2.1-0.6-2.7-1.3c-0.4-0.4-0.1-1.6-0.1-2.4C172.1,217.2,172.3,217.2,172.4,217.2z"/>
	<path d="M157,234.1c-0.3-1-0.5-2.1-1-2.9c-0.7-1-1.2-2.1-1.3-3.3c-0.1-0.8-0.7-1.5-0.7-2.3c0-0.8,0.4-1.6,0.7-2.4
		c0-0.1,0.8-0.1,1,0.1c0.2,0.3,0.3,0.8,0.3,1.3c0.4,2.1,0.8,4.2,1.3,6.3c0.1,0.4,0.9,1,1.1,0.9c0.5-0.2,1.2-0.9,1.2-1.3
		c-0.3-2-0.8-4-1.2-6c-0.2-0.9-0.4-1.8-0.5-2.8c0-0.2,0.7-0.5,1-0.8c0.2,0.3,0.5,0.6,0.6,0.9c0.5,2.1,1,4.2,1.3,6.4
		c0.2,1.4,0.2,2.8,0,4.2c-0.3,2-1.6,2.7-3.6,2.1c0-0.2,0-0.4,0-0.7C157.3,233.9,157.1,234,157,234.1z"/>
	<path d="M52.8,276.9c1.7,0.7,3.5,1.4,5.3,2.1c0.3,0.1,0.5,0.7,0.7,1.1c-0.4,0-0.9,0.2-1.3,0.1c-0.5-0.1-1.1-0.3-1.4-0.6
		c-1.2-1.3-2.8-1.3-3.9-0.6c-1.2,0.8-2.4,2.1-2.8,3.4c-0.3,1,0.3,2.6,1.1,3.6c0.8,0.9,2.1,1.5,3.3,1.9c0.9,0.3,2-0.1,3.1-0.2
		c0.2,0,0.4,0,0.7,0c0,0.3,0.1,0.6-0.1,0.7c-0.7,0.5-1.5,1.4-2.2,1.4c-4.3,0-7.2-3-7.1-7.4c0-1.2,1.4-2.4,2.2-3.7
		c0.1-0.2,0.3-0.2,0.4-0.4C51.5,277.3,52.9,276.7,52.8,276.9z"/>
	<path d="M69.9,282.3c0,2.4-2.5,4.9-4.8,4.9c-2,0-4.9-2.5-4.9-4.2c0-2.9,2.6-5.8,5.2-5.8C67.2,277.1,69.9,280.2,69.9,282.3z
		 M62.2,283.9c-0.1-0.3-0.2-0.6-0.3-0.8c-0.1,0-0.1,0.1-0.2,0.1C61.8,283.5,62,283.7,62.2,283.9c2.6,2.5,4.2,2.4,6-0.4
		c0.8-1.3,0.4-3.2-0.9-4c-1.5-0.9-4.1-0.6-4.6,0.8C62.3,281.4,62.3,282.7,62.2,283.9z"/>
	<path d="M154.9,282c0.1-0.4,0.5-1,0.3-1.3c-0.3-0.5-0.9-1-1.4-1.2c-0.7-0.2-1.4,0-2.1-0.2c-0.3-0.1-0.5-0.5-0.8-0.8
		c0.3-0.2,0.6-0.4,0.9-0.5c0.2-0.1,0.6,0,0.8-0.1c2.7-0.4,2.7-0.4,2.7-3.2c0-0.7-0.1-1.4-0.1-2.1c0-0.8,0.1-1.6,0.2-2.4
		c0.2,0,0.4-0.1,0.6-0.1c0.2,0.3,0.5,0.7,0.5,1c0.1,1.3,0.2,2.5,0.1,3.8c-0.1,2.4,0.9,3.2,3.2,2.9c0.6-0.1,1.3,0.1,2,0.2
		c-0.6,0.4-1.2,1-1.9,1.2c-1,0.2-2.1,0.2-3.2,0.2c0,1.9,0.1,3.9,0,5.9c0,0.5-0.7,0.9-1,1.4c-0.2-0.4-0.6-0.9-0.6-1.3
		c0-0.6,0.3-1.2,0.3-1.8C155.1,283.1,154.9,282.5,154.9,282z"/>
	<path d="M62,211.7c0.1,0.5,0.2,0.9,0.3,1.2c1.1-0.2,2.1-0.4,3.1-0.6c1.6-0.4,2.4,0.6,3.2,1.6c0.2,0.2,0.2,0.8,0,0.9
		c-0.2,0.2-0.6,0.1-1,0.1c-1.2-0.1-2.5-0.7-3.5-0.4c-1.2,0.3-2.4,1.2-3.1,2.2c-1.1,1.4-1.8,3.2-2.7,4.8c-0.2,0.4-0.9,0.5-1.3,0.8
		c0-0.5-0.3-1-0.1-1.5c0.9-2.5,1.8-5,2.9-7.4C60.2,212.6,61.2,212.3,62,211.7z"/>
	<path d="M187.2,197.5c0.3,0.6,0.6,1.3,1,1.9c0.6,1.1,1.2,2.2,1.9,3.2c0.2,0.3,1.2,0.1,1.8,0c0.4-0.1,0.7-0.4,1.1-0.6
		c0.1,0.1,0.3,0.3,0.4,0.4c-0.6,0.6-1.2,1.5-1.9,1.8c-0.7,0.2-2,0-2.4-0.5c-1.4-2-2.5-4.3-3.7-6.4c-0.7-1.3-1.2-2.7-1.7-4
		c-0.1-0.4-0.2-1,0-1.2c0.3-0.2,0.8-0.1,1.5-0.1c0,0,0.2-0.3,0.4-0.6c0.1,0,0.3,0.1,0.4,0.1c-0.2,0.8-0.7,1.7-0.5,2.5
		c0.1,0.8,0.8,1.5,1.2,2C186.9,196.6,187.1,197.1,187.2,197.5L187.2,197.5z"/>
	<path d="M184.2,268.5c0-0.7,0-0.8,0-1c0.2-0.4,0.4-0.8,0.6-1.2c0.3,0.4,0.7,0.9,0.7,1.3c0,2.1-0.2,4.3-0.3,6.4
		c-0.1,3.5-0.2,7-0.4,10.5c0,0.6-0.7,1.2-1,1.8c-0.2-0.6-0.5-1.1-0.5-1.7c0.1-4.1,0.3-8.1,0.5-12.2
		C183.9,270.9,184.1,269.5,184.2,268.5z"/>
	<path d="M124.6,278.4c0.3,1.7,0.5,3.5,0.8,5.2c0.1,0,0.7,0.1,0.7,0.2c0.1,0.6,0.1,1.3,0,1.9c0,0.2-0.2,0.4-0.3,0.6
		c-0.3,0.4-0.7,0.8-1.1,1.3c-0.3-0.6-0.8-1.1-0.8-1.7c-0.3-2.9-0.4-5.9-0.8-8.8c-0.1-1-0.9-2-1.2-3c-0.1-0.6,0.2-1.2,0.3-1.9
		c0.4,0.4,1.1,0.7,1.2,1.2C123.9,275.1,124.2,276.7,124.6,278.4L124.6,278.4z"/>
	<path d="M73.7,234.4c0.7-1.5,1.3-2.8,1.9-4.2c0.5-1.2,1.1-2.4,1.6-3.5c0.2-0.3,0.5-0.8,0.8-0.8c0.3,0,0.8,0.3,0.9,0.6
		c0.1,0.2-0.3,0.6-0.4,0.9c-0.8,1.8-1.6,3.6-2.5,5.4c-0.3,0.7-0.6,1.4-1,2c-0.1,0.2-0.6,0.4-0.8,0.3C74,235,73.9,234.6,73.7,234.4z"
		/>
	<path d="M154.1,262.1c0.2,0,0.3,0,0.5,0c0.9,1.6,1.8,3.1,2.7,4.8C156.3,267.1,154.4,263.9,154.1,262.1z"/>
	<path d="M112.5,247.2c0.2-0.1-0.2,0.1-0.5,0.3c-0.8-1.1-0.4-3.1,0.9-4.6C112.8,244.3,112.7,245.6,112.5,247.2z"/>
	<path d="M82.6,222.4c-0.5-0.7-0.9-1.3-1.5-2.1C82.9,220,83.3,220.5,82.6,222.4z"/>
	<path d="M90.5,260.8c-0.1,0.2-0.2,0.3-0.6,0.9c-0.1-1.3-0.1-2.1-0.1-3c0.1,0,0.2,0,0.3,0C90.2,259.5,90.3,260.2,90.5,260.8
		C90.5,260.9,90.5,260.8,90.5,260.8z"/>
	<path d="M122.4,256.8c0.2-0.6,0.5-1.3,0.7-1.9c0,0,0.1,0.1,0.1,0.1c0.1,0.4,0.3,0.9,0.2,1.3C123.3,256.5,122.8,256.7,122.4,256.8
		L122.4,256.8z"/>
	<path d="M124.6,278.4c0.1-0.5,0.1-1,0.2-1.4c0.1,0,0.3,0,0.4,0c0,0.7,0.1,1.5,0.1,2.2c-0.1,0-0.2,0-0.3,0.1
		C124.9,278.9,124.7,278.7,124.6,278.4C124.6,278.4,124.6,278.4,124.6,278.4z"/>
	<path d="M48.9,258.5c0.1,0.7,0.1,1.5,0.2,2.2c-0.2,0-0.4,0-0.6,0C48.7,259.9,48.8,259.2,48.9,258.5C49,258.5,48.9,258.5,48.9,258.5
		z"/>
	<path d="M145,252.5c0.1,0.9,0.1,1.9,0.2,2.8c-0.2,0-0.4,0-0.6,0C144.7,254.4,144.8,253.4,145,252.5
		C144.9,252.5,145,252.5,145,252.5z"/>
	<path d="M49.2,270.8c0-0.5-0.1-0.8-0.1-1.1c0.5,0,1,0.1,1.4,0.1c0,0.1,0.1,0.2,0.1,0.3C50.3,270.4,49.8,270.6,49.2,270.8z"/>
	<path d="M213.8,239.2c0-0.5-0.1-0.9-0.1-1.4c0.2,0,0.3,0,0.5-0.1c0.1,0.5,0.1,0.9,0.2,1.4C214.2,239.2,214,239.2,213.8,239.2z"/>
	<path d="M43.6,232c-0.1-0.4-0.1-0.9-0.2-1.3c0.1,0,0.3,0,0.4-0.1c0.1,0.5,0.1,0.9,0.2,1.4C43.8,232,43.7,232,43.6,232z"/>
	<path d="M178.5,202.8c0.1,0.3,0.1,0.7,0.2,1c-0.1,0-0.3,0.1-0.4,0.1c-0.1-0.3-0.2-0.7-0.3-1C178.2,202.9,178.3,202.9,178.5,202.8z"
		/>
	<path d="M49,252.8c0,0.4,0,0.8-0.1,1.1c-0.1,0-0.3,0-0.4,0c0-0.4,0.1-0.8,0.1-1.2C48.8,252.7,48.9,252.8,49,252.8z"/>
	<path d="M169.9,260.7c-0.2-0.1-0.4-0.3-0.6-0.4c0.1-0.1,0.1-0.2,0.2-0.3c0.2,0.1,0.5,0.2,0.7,0.4
		C170.1,260.4,170,260.6,169.9,260.7z"/>
	<path d="M183.4,231.8c-0.1-0.4-0.2-0.9-0.3-1.3c0.2,0,0.4,0,0.5,0C183.5,230.9,183.4,231.4,183.4,231.8L183.4,231.8z"/>
	<path d="M144.2,278.5c-0.2,0-0.5-0.1-0.7-0.1c0.3-0.1,0.5-0.2,0.8-0.3C144.3,278.3,144.2,278.4,144.2,278.5z"/>
	<path d="M143.9,244c0.1,0.3,0.2,0.6,0.3,0.9c-0.1,0-0.2,0.1-0.4,0.1c-0.1-0.3-0.3-0.6-0.4-0.9C143.6,244.1,143.8,244.1,143.9,244z"
		/>
	<path d="M217.9,208.8c0,0.3-0.1,0.5-0.1,0.8c-0.1,0-0.2,0-0.3,0c0-0.3,0-0.5,0.1-0.8C217.7,208.8,217.8,208.8,217.9,208.8z"/>
	<path d="M215,217.9c-0.1-0.3-0.3-0.7-0.4-1c0.2,0,0.4,0,0.6,0C215.1,217.2,215.1,217.6,215,217.9C215,217.9,215,217.9,215,217.9z"
		/>
	<path d="M159.9,262.3c-0.2,0.2-0.4,0.3-0.6,0.5c-0.1-0.1-0.1-0.1-0.2-0.2c0.2-0.2,0.3-0.4,0.5-0.5
		C159.8,262.2,159.8,262.2,159.9,262.3z"/>
	<path d="M171.6,279c0-0.3,0.1-0.6,0.1-0.9c0.1,0,0.2,0,0.4,0.1c-0.1,0.3-0.1,0.6-0.2,0.9C171.8,279,171.7,279,171.6,279z"/>
	<path d="M187,223.9c-0.1-0.2-0.2-0.4-0.3-0.7c0.2,0,0.4,0.1,0.6,0.1C187.2,223.6,187.1,223.7,187,223.9
		C187,223.9,187,223.9,187,223.9z"/>
	<path d="M174.2,258c0,0.3,0,0.5,0,0.8c-0.1,0-0.1,0-0.2,0c0-0.3,0-0.5,0-0.8C174.1,258,174.2,258,174.2,258z"/>
	<path d="M43.5,220.2c0.1,0.3,0.2,0.6,0.3,0.8c-0.1,0-0.1,0.1-0.2,0.1c-0.1-0.3-0.2-0.6-0.3-0.8C43.3,220.2,43.4,220.2,43.5,220.2z"
		/>
	<path d="M187.2,197.5c0-0.3,0.1-0.5,0.1-0.8c0.2,0.1,0.3,0.1,0.5,0.2C187.6,197.1,187.4,197.3,187.2,197.5
		C187.2,197.5,187.2,197.5,187.2,197.5z"/>
	<path d="M53.5,198.3c-0.1-0.1-0.1-0.1-0.2-0.2c0.2-0.1,0.4-0.2,0.6-0.3c0,0.2,0.1,0.4,0.1,0.6C53.9,198.3,53.7,198.3,53.5,198.3z"
		/>
	<path d="M205.9,239.3c0.2-0.2,0.4-0.3,0.6-0.5c-0.1,0.3-0.1,0.5-0.2,0.8C206.2,239.5,206.1,239.4,205.9,239.3z"/>
	<path d="M125.2,272.2c0,0.2-0.1,0.4-0.1,0.6c-0.1,0-0.1,0-0.2,0c0-0.2,0-0.4,0-0.7C125,272.2,125.1,272.2,125.2,272.2z"/>
	<path d="M203.4,241.2c0,0.1,0,0.3,0,0.4c-0.1,0-0.3,0-0.3,0c0-0.1,0-0.3,0-0.4C203.2,241.2,203.3,241.2,203.4,241.2z"/>
	<path d="M202.5,238.3c0.1,0.1,0.2,0.2,0.3,0.3c-0.2,0.1-0.4,0.1-0.6,0.2c0-0.2-0.1-0.4-0.1-0.5
		C202.3,238.2,202.4,238.3,202.5,238.3z"/>
	<path d="M215,215.5c0,0.3,0.1,0.5,0.1,0.8c-0.1,0-0.3,0-0.4-0.1C214.8,216,214.9,215.8,215,215.5C215,215.5,215,215.5,215,215.5z"
		/>
	<path d="M187,223.9c-0.2,0.1-0.5,0.3-0.7,0.4c0-0.1-0.1-0.2-0.1-0.3C186.4,224,186.7,223.9,187,223.9
		C187,223.9,187,223.9,187,223.9z"/>
	<path d="M90,266.2c-0.1-0.3-0.2-0.6-0.3-0.9c0.1,0,0.3,0,0.4,0C90.1,265.6,90,265.9,90,266.2C90,266.2,90,266.2,90,266.2z"/>
	<path d="M156.1,270c0.3,0,0.5-0.1,0.8-0.1c0.1,0,0.2,0.2,0.3,0.3c-0.2,0.1-0.4,0.3-0.6,0.4C156.4,270.4,156.2,270.2,156.1,270z"/>
	<path d="M183.3,231.8c0,0.2-0.1,0.4-0.1,0.7c-0.1-0.1-0.2-0.1-0.3-0.2C183.1,232.2,183.2,232,183.3,231.8
		C183.4,231.8,183.3,231.8,183.3,231.8z"/>
	<path d="M49.2,255.9c0,0.3,0,0.5-0.1,0.8c-0.1,0-0.1,0-0.2,0c0-0.3-0.1-0.5-0.1-0.8C49,255.9,49.1,255.9,49.2,255.9z"/>
	<path d="M201.2,288.1c0,0.1-0.1,0.3-0.1,0.4c-0.2,0.1-0.3,0.1-0.5,0.2c0-0.1-0.1-0.3,0-0.3C200.8,288.3,201,288.2,201.2,288.1z"/>
	<path d="M43.4,242.6c-0.1-0.1-0.3-0.2-0.4-0.3c0.1-0.1,0.2-0.2,0.3-0.2C43.4,242.3,43.4,242.5,43.4,242.6
		C43.4,242.6,43.4,242.6,43.4,242.6z"/>
	<path d="M164.2,242c0.1,0.1,0.2,0.2,0.2,0.3c0,0.1-0.1,0.2-0.1,0.2c-0.1-0.1-0.2-0.1-0.2-0.2C163.9,242.3,164,242.2,164.2,242z"/>
	<path d="M175.5,233.3c0-0.2,0-0.5,0-0.7c0.3,0.2,0.5,0.3,0.8,0.5c-0.1,0.1-0.2,0.2-0.2,0.3C175.8,233.4,175.6,233.4,175.5,233.3z"
		/>
	<path d="M43.2,235.1c0.1-0.1,0.2-0.3,0.6-0.8c-0.2,0.6-0.3,0.8-0.4,0.9C43.4,235.2,43.3,235.2,43.2,235.1z"/>
	<path d="M61.9,268c0,0,0-0.1-0.1-0.1c0.1-0.3,0.2-0.6,0.4-1c0,0,0,0,0,0C62.1,267.2,62,267.6,61.9,268z"/>
	<path d="M43.7,236.6c-0.2-0.2-0.3-0.4-0.5-0.5c0.1-0.1,0.2-0.1,0.3-0.2C43.6,236.2,43.6,236.4,43.7,236.6
		C43.7,236.7,43.7,236.6,43.7,236.6z"/>
	<path d="M179.8,241.2c0.1-0.2,0.2-0.3,0.4-0.5c0,0.1,0.1,0.2,0.1,0.3C180.1,241.1,179.9,241.1,179.8,241.2
		C179.7,241.2,179.8,241.2,179.8,241.2z"/>
	<path d="M90.3,263.8c-0.1,0.1-0.2,0.2-0.2,0.2c0-0.1-0.1-0.1-0.1-0.2c0-0.1,0.1-0.2,0.2-0.2C90.2,263.7,90.2,263.8,90.3,263.8z"/>
	<path d="M97,124c0-0.1,0-0.2-0.1-0.3c0,0,0.1,0,0.1,0C97.1,123.7,97.1,123.8,97,124C97.1,123.9,97,124,97,124z"/>
	<path d="M189.3,242.2c0.2,0,0.4,0.1,0.6,0.1c0,0.1-0.1,0.1-0.1,0.2C189.7,242.4,189.5,242.3,189.3,242.2
		C189.4,242.2,189.3,242.2,189.3,242.2z"/>
	<path d="M154.4,283.5c-0.4,0.1-0.5,0.2-0.6,0.2c0,0-0.1-0.1-0.1-0.2c0-0.1,0.1-0.2,0.2-0.2C154,283.3,154.1,283.4,154.4,283.5z"/>
	<path d="M210.7,150.5c-0.1-0.3-0.2-0.5-0.3-0.8c0.1,0,0.2,0,0.3,0C210.7,149.9,210.7,150.2,210.7,150.5
		C210.7,150.5,210.7,150.5,210.7,150.5z"/>
	<path d="M119.8,245.8c0,0.7,0.3,1.6-1,1.6c-0.2,0-0.4,0.7-0.5,1.1c-0.3,0.8-0.7,1-1.2,0.1c0.4-0.5,0.8-0.9,1.2-1.4
		c0.4-0.5,0.7-1.1,1.1-1.7C119.5,245.6,119.7,245.7,119.8,245.8z"/>
	<path d="M136.5,254.8c-0.1,0.2-0.2,0.4-0.3,0.6c-0.1,0-0.2-0.1-0.3-0.1c0.1-0.2,0.2-0.4,0.2-0.6
		C136.2,254.7,136.3,254.7,136.5,254.8z"/>
	<path d="M198.6,233.8c-0.1,0.5-0.1,1-0.2,1.5c-0.1,0-0.2,0-0.3,0c0-0.5,0.1-1.1,0.1-1.6C198.3,233.8,198.5,233.8,198.6,233.8z"/>
	<path d="M198.5,231.5c0,0.3,0,0.7,0,1c-0.1,0-0.2,0-0.3,0c0-0.3,0-0.7,0-1C198.3,231.5,198.4,231.5,198.5,231.5z"/>
	<path d="M197,227.4c0.1,0.2,0.2,0.4,0.3,0.6c-0.1,0-0.1,0.1-0.2,0.1c-0.1-0.2-0.2-0.4-0.4-0.6C196.8,227.5,196.9,227.5,197,227.4z"
		/>
	<path d="M136.3,265.4c-0.3-0.1-0.6-0.2-0.8-0.3c0.1-0.1,0.2-0.3,0.2-0.4C135.9,265,136.1,265.2,136.3,265.4
		C136.3,265.4,136.3,265.4,136.3,265.4z"/>
	<path d="M135.1,267.6c-0.1-0.3-0.2-0.6-0.3-0.9c0.2,0,0.4,0,0.6-0.1C135.3,266.9,135.2,267.3,135.1,267.6
		C135.1,267.6,135.1,267.6,135.1,267.6z"/>
</g>
<g id="without" class="animated bounce 3s">
	<path d="M43.4,242.6c0-1.1-0.1-2.1-0.1-3.2c0-0.3,0.2-0.6,0.2-0.9c0.1-0.6,0.1-1.3,0.1-2l0,0c0-1,0.1-1.9,0.1-2.9
		c0-0.3-0.2-0.7,0-1.2c0.2,0.2,0.3,0.4,0.5,0.6c0.1,0,0.2-0.1,0.3-0.1c-0.4-1.5-0.7-2.9-1.1-4.4c0.2,0.1,0.4,0.1,0.5,0.2
		c0.2-0.6,0.5-1.2,0.7-1.8c-0.2-0.1-0.4-0.3-0.7-0.4c-0.1,0.3-0.2,0.7-0.3,1c-0.1-0.1-0.2-0.2-0.3-0.2c0-1.3,0-2.6,0-3.9
		c0.1,0,0.2,0,0.3,0c0.1,0.8,0.2,1.6,0.3,2.4c0.1,0,0.2,0,0.3,0c0-1.1,0-2.2,0-3.3c0-0.4,0.3-0.8,0.5-1.3c0.3,0.4,1,0.8,1,1.2
		c0.1,1.4-0.1,2.9-0.1,4.3c-0.2,6.3-0.3,12.5-0.6,18.8c-0.2,4-0.6,8.1-0.8,12.1c-0.1,3.8,0,7.6,0,11.5c0,0.3,0.1,0.6,0.2,0.9
		c-0.4,0.2-0.7,0.4-1.2,0.7c-0.9-4.3-1.7-8.6-2.6-12.7c-0.7,3.6-1.4,7.3-2,11.1c-0.2,1,0,2-0.2,2.9c-0.2,0.6-0.9,1-1.3,1.5
		c-0.4-0.5-0.9-0.9-1-1.4c-0.6-2.7-1.3-5.4-1.7-8.2c-0.4-3-0.6-6.1-0.8-9.1c-0.5-8.1-0.9-16.1-1.4-24.2c-0.2-3.3-0.5-6.7-0.6-10
		c0-0.4,0.4-0.8,0.6-1.2c0.3,0.4,0.8,0.7,0.8,1.1c0.3,4.2,0.5,8.4,0.7,12.6c0.5,9.2,0.8,18.4,1.4,27.6c0.1,2.3,0.9,4.5,1.3,6.8
		c0.1,0.7,0.3,1.4,0.8,2.1c0.4-2.6,0.9-5.3,1.2-7.9c0.5-4.1,0.9-8.3,1.4-12.4c0.1-0.5,0.5-0.9,0.8-1.4c0.2,0,0.3,0.1,0.5,0.1
		c0.4,4.1,0.8,8.1,1.2,12.2c0.2,0,0.3,0,0.5,0c0-1-0.1-2.1,0-3.1c0.2-3.4,0.5-6.7,0.6-10.1C43.7,245.5,43.5,244.1,43.4,242.6
		C43.4,242.6,43.4,242.6,43.4,242.6z"/>
	<path d="M194.6,246.7c0-0.3,0.1-0.7,0.1-1.1c-1.6,0.2-2.7-0.6-2.7-2.1c-0.1-3.2-0.2-6.4,0-9.6c0.3-4.4,1.9-8.4,4.3-12
		c0.3-0.5,1.1-0.9,1.6-0.9c0.3,0,0.8,0.7,1,1.2c0.8,2,1.5,4,2.2,5.9c0.2-4.9,0.4-10,0.6-15.1c0-0.5,0.5-0.9,0.7-1.3
		c0.3,0.4,0.8,0.8,0.8,1.2c-0.1,1.8-0.3,3.6-0.4,5.4c-0.1,2.3-0.2,4.5-0.3,6.8c0,0.9,0.2,1.9,0.2,2.8c0,2-0.3,4-0.2,5.9
		c0.1,1.3,0.5,2.6,1.1,3.7c0.6,1,1.6,0.7,2.1-0.2c0.7-1.4,1.6-2.8,1.9-4.3c0.9-5.6,1.7-11.2,2.4-16.8c0.1-1-0.3-2-0.3-3
		c0-0.5,0.3-1.1,0.6-1.6c0.1-0.1,0.8-0.1,0.8,0c0.2,0.4,0.3,0.9,0.3,1.4c-0.6,6-1.1,12-2,17.9c-0.4,2.4-1.6,4.6-2.5,6.9
		c-0.1,0.4-0.3,0.7-0.5,1.1c-0.2,0.2-0.4,0.3-0.6,0.5c-1.3,1-2.2,0.1-3.1-0.7c-0.1-0.1-0.2-0.2-0.3-0.3c-0.4-1.4-0.9-2.8-1.1-3.6
		c-0.8,2.3-1.6,5.1-2.7,7.8c-0.5,1.1-1.7,1.8-2.5,2.7C195.6,245.6,195.1,246.2,194.6,246.7L194.6,246.7z M197.8,241.2
		c0.3-0.5,0.8-1,1-1.6c1.4-4.6,1.6-9.2,0.3-13.8c-0.3-1.1-1-2.1-1.6-3.5c-0.4,0.7-0.5,1-0.6,1.3c-0.1,0.5-0.1,1.2-0.4,1.6
		c-0.3,0.6-1,1-1.2,1.7c-0.6,2-1.3,3.9-1.6,6c-0.3,3.1-0.4,6.3-0.4,9.4c0,1.7,0.9,2.2,2.2,1.2c0.7-0.5,1-1.7,1.4-2.6
		c0.2-0.4,0.2-0.9,0.4-1.4c0.1,0.5,0.2,0.9,0.3,1.4C197.5,241,197.7,241.1,197.8,241.2c-0.2,0.2-0.3,0.4-0.5,0.6
		c0.1,0.1,0.2,0.1,0.2,0.2C197.6,241.7,197.7,241.5,197.8,241.2z"/>
	<path d="M175.5,233.3c1.2,2.4,2.3,4.9,3.5,7.3c0.1,0.3,0.5,0.4,0.8,0.6l0,0c0.1,0.9,0.1,1.8,0.2,2.7c0.1,0,0.3,0,0.4,0
		c0-1.7,0-3.3,0-5c0-0.4-0.1-0.9,0.1-1.1c1.2-1.5-0.2-3,0-4.5c0.3-1.9-0.1-3.8-0.2-5.7c0-0.5-0.3-1-0.5-1.6c0.1-0.1,0.3-0.5,0.7-0.7
		c0.3-0.2,0.8-0.3,1.1-0.1c0.3,0.1,0.5,0.6,0.5,0.9c-0.1,3.4-0.3,6.7-0.4,10.1c-0.1,3.2-0.3,6.4-0.2,9.5c0.1,3.1,0.5,6.1,1,9.1
		c0.2,1.4-0.6,2-1.4,2.5c-0.8,0.6-1-0.2-1-1c0.1-1.6,0.3-3.2,0.1-4.8c-0.1-1.2-0.6-2.5-0.9-3.7c-0.2-0.7-0.3-1.3-0.4-2
		c-0.7-3.5-1.7-6.8-4.1-9.8c0,6.9,0,13.7,0,20.4c-1.4,0.1-1.8-0.3-1.8-1.5c0.1-3.2,0-6.5,0-9.8c0-2.8,0.1-5.5,0.2-8.3
		c0-1.3-0.1-2.6,0-3.8c0-0.5,0.5-1,0.7-1.5c0.4,0.4,0.8,0.7,1.2,1.1C175.4,232.9,175.4,233.1,175.5,233.3z"/>
	<path d="M164.4,254.3c0.3-3.1-0.1-3.6-3.6-10.6c0,0.8,0,1.7,0,2.5l0,0c-0.2,1.5-0.5,3-0.7,4.5c-0.2,2.9-0.3,5.8-0.4,8.5
		c-0.7-0.3-1.4-0.4-2-0.8c-0.3-0.2-0.6-0.8-0.5-1.2c1-5.3,1.5-10.6,1.2-16.1c0-0.3,0.4-0.8,0.5-0.8c0.7,0.1,1.6,0.1,1.9,0.5
		c1,1.5,1.8,3.1,2.7,4.7c0.1,0.2,0.2,0.4,0.6,0.9c0-1.5,0-2.6,0-3.8c0.2,0,0.4,0,0.6,0c0.1,2.2,0.1,4.4,0.2,6.6c0.2,0,0.4,0,0.6,0
		c0.1-2,0.3-4.1,0.3-6.1c0-2.4-0.1-4.9-0.1-7.3c0-0.4,0.3-0.8,0.6-1.1c0.2-0.2,0.8-0.1,1,0.1c0.3,0.4,0.5,0.9,0.5,1.4
		c-0.1,1.2-0.6,2.3-0.6,3.4c-0.2,4.1-0.4,8.2-0.4,12.3c0,2.2,0.5,4.3,0.7,6.5c0.1,0.6-0.2,1.3-0.3,1.9c-0.5-0.1-1-0.2-1.5-0.4
		c0,0.4,0.1,0.8,0.1,1.5c-0.6-0.1-1.4,0-1.5-0.2c-0.2-0.8-0.3-1.7-0.4-2.6c-0.1-0.4-0.1-0.9-0.2-1.3c0-0.3-0.2-0.6-0.1-0.9
		C163.9,255.9,164.1,255.1,164.4,254.3c0.2,0.1,0.5,0.3,0.7,0.4c0-0.1,0-0.2,0-0.4C164.8,254.3,164.6,254.3,164.4,254.3z
		 M165.2,258.8c0.1,0.1,0.1,0.2,0.2,0.3c0.2-0.1,0.4-0.3,0.5-0.4c0-0.1-0.1-0.1-0.1-0.2C165.5,258.6,165.3,258.7,165.2,258.8z
		 M165.1,257.8c0.1,0,0.1-0.1,0.2-0.1c-0.1-0.2-0.2-0.5-0.3-0.7c0,0-0.1,0-0.1,0.1C164.9,257.4,165,257.6,165.1,257.8z"/>
	<path d="M61.9,268c-0.3-0.9-0.9-1.7-0.9-2.6c-0.1-2,0.1-4,0.1-5.9c0-1.9-0.2-3.9-0.3-5.7c-0.5-0.2-1-0.4-1.9-0.7
		c2.8-0.9,1.5-2.8,1.4-4.3c-0.2-3.4-0.8-6.7-1-10.1c0-0.6,0.7-1.3,1.2-2c0.4,2,0.8,3.7,1.1,5.4c0,0.2,0,0.4,0,0.6
		c0,0.3-0.1,0.6-0.1,1c0.3,0.1,0.6,0.3,0.8,0.4c-0.3,0.2-0.5,0.4-0.5,0.3c0.1,2.1,0.2,4.1,0.3,6.1c-0.1,0-0.2,0-0.2,0
		c0.1-0.2,0.1-0.4,0.2-0.6c0.1,0,0.1,0,0.2,0c0,0.6-0.1,1.3-0.1,2.1c0.8,0,1.8,0,2.8,0c0.2,0,0.4-0.5,0.4-0.8
		c-0.1-3.9-0.2-7.7-0.3-11.6c0-0.4,0.3-0.8,0.5-1.1c0-0.1,0.6,0,0.6,0.1c0.1,0.4,0.2,0.8,0.2,1.1c0.1,0.8,0.1,1.7,0.2,3
		c0,0-0.3,0.6-0.3,1.2c0,1.8-0.2,3.6,0.1,5.3c0.9,4.4,0.4,8.9,0.8,13.4c0.2,1.7,0.4,3.4,0.6,5.1c0,0.5-0.2,1-0.3,1.6
		c-1.1-0.5-1.8-0.8-1.5-2.3c0.3-1.3-0.1-2.7-0.2-4c-0.1-2.5-0.3-5-0.3-7.4c0-1.5-0.8-1.7-1.9-1.6c-1.3,0.2-1.8,0.7-1.6,2.2
		c0.4,2.9,0.4,5.8,0.5,8.8c0,0.6-0.3,1.2-0.5,1.8c0,0,0,0,0,0c-0.2,0-0.4,0-0.5,0c0.1,0.3,0.1,0.6,0.2,1
		C61.8,267.9,61.9,267.9,61.9,268z"/>
	<path d="M77.1,264.6c-0.9,0.9-1.7,1.9-2.8,2.5c-2.4,1.4-3.8,0.1-4.8-1.9c-1.8-3.4-1.5-7.2-0.9-10.8c0.4-2.9,1.3-5.7,2.2-8.5
		c0.4-1.4,1.5-2.2,2.6-2.1c1.1,1.9,2.5,3.5,3,5.3c1.3,4.6,2.4,9.4,0.7,14.2c-0.1,0.2,0,0.5,0,0.7c-0.1,0.2-0.3,0.4-0.4,0.6
		C76.8,264.6,77,264.6,77.1,264.6z M70.1,261.1c0.5,1.3,1.1,2.7,1.6,4c-0.1,0-0.2,0.1-0.4,0.1c0.4,0.3,0.9,0.5,1.7,1
		c0.7-1.5,1.5-2.9,2-4.4c0.9-2.6,1.2-5.3,0.5-8.1c-0.4-1.5-0.6-3.1-0.9-4.7c0.1,0.1,0.2,0.1,0.4,0.2c-0.1-0.2-0.1-0.3-0.2-0.5
		c-0.1,0.1-0.1,0.2-0.2,0.3c-0.2-0.3-0.4-0.6-0.6-0.9c-0.4-1-0.7-1.9-1.2-3.3c-0.7,1.6-1.3,2.9-1.8,4.2c0.1,0,0.2,0,0.3,0
		c-0.2,0.8-0.4,1.6-0.6,2.4c0,0-0.1,0-0.1-0.1c-0.4,2.1-0.7,4.2-1.1,6.3c0.1,0,0.1,0,0.2,0c0.1-0.3,0.1-0.6,0.1-0.6
		c0.2,1,0.4,2.1,0.5,3.3C70.5,260.7,70.2,260.9,70.1,261.1c-0.1,0.5-0.3,0.9-0.4,1.4c0.1,0,0.1,0,0.2,0
		C69.9,262.1,70,261.6,70.1,261.1z M76.2,261.6c-0.1,0-0.2,0-0.3,0c0,0.3-0.1,0.6-0.1,0.9c0.1,0,0.2,0,0.3,0
		C76.2,262.3,76.2,261.9,76.2,261.6z M76.6,258.9c-0.1,0-0.2,0-0.2,0c0,0.3,0,0.6,0,0.9c0.1,0,0.1,0,0.2,0
		C76.6,259.5,76.6,259.2,76.6,258.9z"/>
	<path d="M189.4,242.2c-0.4,0-0.7,0.1-1.3,0.1c0.3,1,0.4,1.9,0.8,2.8c1.5,3.2,0.8,6.3-0.9,9.1c-0.6,0.9-2,1.3-3.3,1.7
		c0.3-0.3,0.6-0.7,0.9-1c-0.3-1.2-2.5-1.1-1.7-2.8c0.3-0.6,0.1-1.3,0.1-2c0-0.1-0.3-0.2-0.4-0.3c-0.1-0.2-0.3-0.5-0.3-0.8
		c0-2.4,0-4.7,0-7.1c0-0.2-0.3-0.3-0.5-0.6c0.3-0.2,0.6-0.3,0.9-0.4c-0.3-0.2-0.5-0.4-0.4-0.3c0.1-1.4,0.2-2.6,0.4-3.9
		c-0.1,0-0.2,0-0.2,0c0.2-0.5,0.3-0.9,0.4-1.4c0.2-0.8,0.3-1.6,0.4-2.4c0.1-0.8,0.2-1.7,0.4-2.5c0.6-2.6,2.3-4.5,4.1-6.3
		c1.1-1.1,1.9-0.7,2.5,0.2c-1.2,1-2.4,1.9-3.5,2.9c-1.6,1.5-2.1,3.6-2.3,5.8c-0.3,2.7-0.5,5.4-0.8,7.9c1.5-0.2,3-0.6,4.4-0.5
		C190.4,240.5,189.3,241.5,189.4,242.2C189.3,242.2,189.4,242.2,189.4,242.2z M187.9,246.7c0,0.4,0,0.7,0.1,1.1c0.1,0,0.1,0,0.2,0
		C188.1,247.4,188,247.1,187.9,246.7c-0.8-2.3-2.2-4.1-3.3-4.2c0.3,3,0.6,5.9,1,8.8c0.1,0.5,0.6,1,0.9,1.4c0.3-0.6,0.7-1.1,0.8-1.7
		C187.6,249.6,187.7,248.1,187.9,246.7z M187.9,250c0.1-0.1,0.1-0.1,0.1-0.1c0-0.3,0-0.5,0-0.8c0,0-0.1,0-0.1,0
		C188,249.4,188,249.7,187.9,250z"/>
	<path d="M154.1,262.1c-0.5-2.2-1.4-4.2-3.6-6.1c0,2.9,0,5.3,0,7.7c0,0.6-0.3,1.2-0.5,1.7c0,0.1-0.7,0-0.7-0.1
		c-0.2-0.5-0.4-1.1-0.4-1.6c0.1-2.5,0.7-5.1,0.4-7.5c-0.4-2.9,0.5-5.6,0.5-8.4c0-1,0.2-1.5,1.3-1.5c1,0,2.1-0.2,3.1-0.2
		c0.2,0,0.6,0.2,0.7,0.4c0.5,1.3,1.3,2.6,1.3,4c0,1.1-0.7,2.4-1.4,3.3c-0.5,0.7-1.6,1-2.6,1.5c1.1,1.6,2.2,3.5,3.4,5.3
		c1.1,1.6,2.2,3.1,3.2,4.7c0.3,0.4,0.2,1.1,0.2,1.7c0,0.1-0.5,0.3-0.5,0.3c-0.4-0.3-0.8-0.7-1.1-1.1c-1-1.3-1.9-2.6-2.9-3.9
		C154.4,262.1,154.2,262.1,154.1,262.1z M154.1,250.5c-0.8,0.7-1.7,1.3-2.5,2c-0.2,0.2-0.4,0.5-0.6,0.8c0.3,0.1,0.6,0.2,0.9,0.1
		c1-0.3,2.2-0.5,2.5-1.8C154.5,251.3,154.2,250.9,154.1,250.5c0.1-0.4,0.3-1,0.3-1c-0.8-0.4-2.1-1.2-2.4-0.9
		c-0.7,0.6-0.9,1.8-1.5,3.1C152.1,251.2,153.1,250.9,154.1,250.5z M153.7,246.6c0,0.1-0.1,0.1-0.1,0.2c0.2,0.1,0.3,0.1,0.5,0.2
		c0-0.1,0-0.1,0.1-0.2C154.1,246.8,153.9,246.7,153.7,246.6z"/>
	<path d="M215,217.9c0.2-0.6,0.5-1.2,0.7-1.9c0-0.1-0.4-0.4-0.6-0.5l0,0c-0.2-1.4-0.9-2.7,0.6-4c0.4-0.3,0.2-1.4,0.1-2.2
		c-0.1,0.3-0.2,0.6-0.4,0.8c-0.2-0.1-0.3-0.1-0.5-0.2c0.3-0.6,0.5-1.1,0.9-1.9c-0.7-0.1-1.5-0.1-2.2-0.3c-0.5-0.2-0.8-0.6-1.2-1
		c0.5-0.2,1-0.5,1.5-0.6c1.6-0.1,3.1,0,4.7,0c1.2,0,2.4-0.2,3.7-0.3c-0.1,1.3-0.1,2.3-1.8,1.8c-0.7-0.2-1.7,0-2.5,0.2
		c-0.3,0.1-0.7,0.6-0.7,0.9c-0.4,5.6-0.7,11.2-1,16.8c-0.1,2-0.5,4.1-0.6,6.1c-0.1,1.5,0.5,3.1,0.3,4.6c-0.2,1.8,0.5,3.9-1.1,5.6
		c-0.9-0.8-1.2-1.4-0.4-2.7c0.6-1,0.1-2.5,0.1-3.7c0.1-3.6,0.2-7.2,0.4-10.8c0-1.1,0.1-2.1,0.2-3.2c0.2-0.6,0.3-1.3,0.5-1.9
		c-0.1,0-0.3,0-0.4-0.1c0,0.7,0,1.3,0,2C215.1,220.3,215,219.1,215,217.9C215,217.9,215,217.9,215,217.9z M215.7,213.3
		c-0.1,0-0.2,0-0.3,0c0,0.5,0,1.1,0,1.6c0.1,0,0.2,0,0.3,0C215.8,214.3,215.8,213.8,215.7,213.3z"/>
	<path d="M131.3,270c-0.2-0.6-0.4-1-0.5-1.5c0.1,0,0.3,0.1,0.4,0.1c0.3-0.9,0.8-1.7,0.9-2.7c0.1-1.1,0-2.2,0-3.3
		c-0.1-2.3-0.2-4.6-0.3-6.9c0-0.3-0.2-0.6-0.4-1.1c1.7-2.1,4.5-2.5,6.4-0.8c1.3,1.1,0.5,4.2-1.6,6.4c0.3,0.1,0.6,0.1,0.7,0.1
		c0.1,0.5,0.1,0.9,0.3,1.3c1.5,3,0.8,6.4-2.1,7.8C134,269.8,132.6,269.7,131.3,270z M136.1,254.7c-0.9,0-1.8-0.1-2.6,0.1
		c-0.3,0.1-0.4,1.1-0.5,1.7c-0.1,0.5-0.1,1,0.1,1.4c0.1,0.2,0.6,0.4,0.8,0.4c0.3,0,0.5-0.4,0.7-0.6c0.1,0.1,0.2,0.1,0.2,0.2
		c-0.2,0.4-0.3,0.8-0.6,1.3c0.5-0.4,0.8-0.7,1.2-0.8c1-0.4,1.7-2.7,0.9-3.6C136.3,254.7,136.2,254.7,136.1,254.7z M136.3,265.4
		c0.2-2.5-0.2-3.3-3.1-3.9c0.2,2.2,0.3,4.5,0.5,6.8c0.6-0.3,1-0.5,1.5-0.7l0,0C135.5,266.9,135.9,266.1,136.3,265.4L136.3,265.4z"/>
	<path d="M49.4,233.4c1.5-1.9,2.8-2,4.7-1.1c1.1,0.5,2.5,0.5,3.7,0.8c0.5,0.1,1,0.4,1.4,0.7c0.1,0.1,0,0.8-0.1,0.8
		c-0.5,0.1-1.1,0.2-1.6,0.2c-0.9-0.1-1.7-0.3-2.5-0.5c0.4,11.7,0.7,23.2,1.1,34.6c-0.3,0.1-0.5,0.2-0.8,0.3
		c-0.3-0.5-0.8-0.9-0.8-1.4c-0.1-2.8,0-5.5,0-8.3c-0.1-6.4-0.3-12.7-0.5-19.1c-0.1-1.6-0.4-3.2-0.5-4.9c0-1.6-0.8-2.1-2.3-1.9
		C50.7,233.8,50.1,233.6,49.4,233.4z"/>
	<path d="M49,258.5c0.1-1.9,0.4-3.8,0.3-5.7c-0.2-3.9-0.5-7.7-0.8-11.6c-0.4-4.3-0.8-8.6-1.2-12.9c0-0.5-0.1-1.1,0.1-1.5
		c0.2-0.3,0.7-0.5,1.1-0.7c0.1,0.3,0.2,0.7,0.3,1c0.2,2.8,0.4,5.6,0.6,8.5c0,0.5-0.2,1.1-0.2,1.6c0.5,6.9,1.1,13.8,1.5,20.7
		C51,261,51,264,51,267c0,0.5-0.3,1-0.6,1.5c0,0.1-0.6,0-0.6-0.1c-0.1-0.5-0.2-1.1-0.2-1.6c0-2.6,0-5.1,0-7.7
		C49.6,258.9,49.2,258.7,49,258.5C48.9,258.5,49,258.5,49,258.5z"/>
	<path d="M144.9,252.5c0.1-0.2,0.1-0.4,0.2-0.5c0.1-0.2,0.3-0.4,0.5-0.7c-0.3,0-0.5,0-0.8,0c0.2-0.6,0.3-1.3,0.5-2
		c1.6,0.3,1.9,1.1,1.7,2.7c-0.4,2.5-0.1,5.2-0.5,7.7c-0.3,2.1-0.9,4.3-1.7,6.3c-0.3,0.7-1.5,1.3-2.4,1.5c-0.4,0.1-1.4-0.8-1.6-1.4
		c-0.3-1.7-0.4-3.4-0.5-5.2c-0.1-2,0-4,0-6.1c0-0.3-0.1-0.6-0.2-0.9c-0.9-2.2-0.9-2.2,1.8-3.2c0,3.3,0,6.4,0,9.6c-0.1,0-0.1,0-0.2,0
		c0-0.2,0.1-0.4,0.2-1c1,2.3-1.3,4.6,0.8,6.4c1.4-1.7,2.5-3.5,2.4-5.8c-0.1-1.1-0.3-2.2-0.3-3.3c0-0.9,0.4-1.8,0.6-2.8
		C145.4,253.4,145.1,252.9,144.9,252.5L144.9,252.5z"/>
	<path d="M80,249.4c0.1,1,1.5,1.4,0.3,2.5c-0.3,0.3,0,1.3,0.1,2c0.4,3.3,0.7,6.6,1.1,10c0,0.3,0.4,0.8,0.5,0.8
		c0.3,0,0.8-0.3,0.9-0.5c0.6-2.1,1.3-4.2,1.6-6.4c0.3-1.7,0.1-3.6,0.1-5.3c1,0.1,1.4,0.9,1.3,1.8c-0.2,1-0.1,2-0.1,3.1
		c-0.2,2.6-0.3,5.2-0.6,7.8c-0.2,1.3-1.2,2.2-2.6,1.8c-1.1-0.4-2.4-0.6-2.4-2.6c0-3-0.8-6-1-9.1C79,253.4,78.5,251.4,80,249.4z
		 M84.7,261.1c0,0-0.1,0-0.1,0c-0.1,0.6-0.1,1.2-0.2,1.7c0.1,0,0.2,0,0.3,0C84.7,262.3,84.7,261.7,84.7,261.1z M84.2,264
		c0.1-0.1,0.2-0.2,0.2-0.3c0,0-0.1-0.2-0.1-0.2c-0.1,0-0.2,0.1-0.3,0.1C84,263.8,84.1,263.9,84.2,264z"/>
	<path d="M90,266.2c0.3-0.1,0.7-0.2,1.3-0.4c-0.3-1.6-0.5-3.3-0.8-5c0,0,0,0,0,0c0-0.5,0.1-0.9,0.1-1.4c0-0.4-0.1-0.8-0.1-1.3
		c-0.9-0.5-1.9-1-2.8-1.7c-0.2-0.1-0.2-0.8,0-1.2c0.1-0.3,0.6-0.5,0.9-0.5c1.7-0.2,3.4-0.2,5.1-0.5c1.8-0.3,3.6,1.1,3.4,2.6
		c-1.5,0.6-3.8-0.6-4.6,1.4c-0.5,1.3-0.3,2.9-0.3,4.4c0,1.7,0.1,3.5,0,5.2c0,0.3-0.4,0.7-0.6,1c-0.2-0.4-0.5-0.8-0.7-1.2
		C90.6,267.2,90.3,266.7,90,266.2C90,266.2,90,266.2,90,266.2z M92.5,256.6c0.1,0.1,0.1,0.2,0.2,0.3c0.2-0.1,0.4-0.3,0.6-0.4
		c0-0.1-0.1-0.1-0.1-0.2C92.9,256.4,92.7,256.5,92.5,256.6z"/>
	<path d="M169.5,258.9c-0.1-1.2-0.4-2.3-0.3-3.5c0-5,0.1-10,0.2-14.9c0-2.5,0.1-5.1,0.2-7.6c0-0.2,0.2-0.4,0.3-0.7
		c2,1.9,0.9,4.2,1,6.3c0.1,2-0.2,3.9-0.2,5.9c0,0.7,0.4,1.4,0.2,2.3c-0.1-0.2-0.1-0.3-0.2-0.5c0,0,0,0,0,0c0,0,0,0.1,0,0.1
		c0,3.1-0.1,6.2-0.1,9.3c0,1.1-0.1,2.2-0.1,3.4C170.2,258.9,169.8,258.9,169.5,258.9z"/>
	<path d="M161.9,251.3c0.2-0.1,0.5-0.2,0.7-0.3c0,0.1,0.1,0.2,0.1,0.3c-0.2,0.1-0.5,0.2-0.7,0.2C162,251.5,161.9,251.4,161.9,251.3z
		"/>
	<path d="M191.5,246.8c0.1-0.1,0.3-0.2,0.4-0.3c0,0.2,0,0.3,0,0.5C191.8,246.9,191.7,246.8,191.5,246.8
		C191.5,246.7,191.5,246.8,191.5,246.8z"/>
	<path d="M190.8,245c0,0.2,0,0.4-0.1,0.6c-0.1,0-0.1,0-0.2,0c0-0.2,0-0.4,0-0.6C190.7,245,190.8,245,190.8,245z"/>
	<path d="M160.8,246.2c0.2,0.3,0.4,0.5,0.6,0.8c-0.2,0.1-0.3,0.1-0.5,0.2C160.9,246.8,160.8,246.5,160.8,246.2
		C160.8,246.2,160.8,246.2,160.8,246.2z"/>
	<path d="M194.6,246.7c0,0.1,0,0.2,0,0.3c-0.2-0.1-0.5-0.2-0.7-0.3c0-0.1,0.1-0.2,0.1-0.3C194.3,246.6,194.5,246.7,194.6,246.7
		C194.6,246.7,194.6,246.7,194.6,246.7z"/>
	<path d="M162,249c-0.1,0.2-0.1,0.4-0.2,0.6c-0.1,0-0.1,0-0.2,0c0-0.2,0-0.5,0-0.7C161.8,248.9,161.9,248.9,162,249z"/>
	<path d="M171.2,250.5c0,0.3-0.1,0.5-0.1,0.8c-0.1,0-0.2,0-0.3,0c0-0.3,0-0.5,0-0.8C171,250.4,171.1,250.4,171.2,250.5z"/>
	<path d="M191.5,246.8C191.5,246.8,191.5,246.7,191.5,246.8c-0.2,0-0.4,0-0.6,0.1c0-0.1,0-0.3,0.1-0.4
		C191.2,246.5,191.4,246.6,191.5,246.8z"/>
	<path d="M179.8,251.4c-0.1,0.1-0.1,0.1-0.2,0.2c-0.1-0.1-0.2-0.1-0.2-0.2c0,0,0.1-0.1,0.1-0.1C179.6,251.3,179.7,251.4,179.8,251.4
		z"/>
</g>
<g id="rified" class="animated shake 3s">
	<path d="M122.2,133.8c0.3-0.4,0.5-0.8,0.9-1.1c1.2-0.8,2.4-1.5,3.6-2.2c1.3-0.7,3.5,0.1,3.9,1.7c0.9,3.6,1.9,7.2,2.4,10.9
		c0.7,4.6,1,9.2,1.3,13.8c0.3,3.8,0.1,7.5-1.4,11.1c-0.3,0.7-0.9,1.1-1.4,1.7c-0.5,0.7-1,1.5-1.5,2.2c-1.4,1.8-3,3.2-5.4,3.5
		c-0.5,0.1-0.8,0.6-1.1,0.8c0.5,0.4,1,0.7,1.4,1c-0.1,0-0.2,0-0.2,0c0.6,0.3,1.2,0.6,1.7,1.1c2.6,2,4.2,4.8,5.4,7.8
		c0.7,1.8,0.8,3.9,1.2,5.8c0.3,1.8,0.7,3.6,1,5.3c0.5,3.2,1.1,6.4,1.4,9.5c0.3,2.6,0,5.3,0.3,8c0.4,4.2,1,8.3,1.5,12.4
		c0.1,1,0.1,1.8-1.2,1.8c-0.6,0-1.4,0.6-1.6,0.3c-0.5-0.5-1-1.3-1-2c0.1-3.8,0.6-7.5,0.6-11.3c0-4.7-0.3-9.4-0.8-14.1
		c-0.4-4.6-2.1-8.9-4-13.1c-0.9-2.1-2.4-4-3.6-5.9c-0.4-0.6-0.7-1.3-1-1.9c-0.2-0.1-0.5-0.1-0.8-0.2c-0.2-0.1-0.3-0.4-0.4-0.6
		c-0.8-0.5-1.6-1-2.3-1.5c-0.1,0.8-0.2,1.6-0.2,2.4c0,3.3,0.1,6.6,0.1,9.9c0.1,4.6,0.2,9.3,0.3,13.9c0.1,6.3,0,12.5,0.2,18.8
		c0,2.1,0.4,4.1,0.5,6.2c0,0.6-0.1,1.4-0.4,1.7c-0.3,0.3-1.2,0.1-1.7-0.2c-1.3-0.7-2-1.4-1.9-3.3c0.3-4,0-7.9,0-11.9
		c-0.1-6-0.2-11.9-0.2-17.9c0-3.5,0.1-7.1,0-10.6c-0.1-4.6-0.3-9.3-0.4-13.9c-0.1-4-0.1-8-0.2-12c-0.1-5.6-0.2-11.3-0.3-16.9
		c0-2.1-0.2-4.2-0.2-6.3c0-0.5,0.5-1.1,0.9-1.5c1.2-1.1,2.4-2.2,3.6-3.2C121.4,133.9,121.8,133.9,122.2,133.8z M126.9,169.7
		c0,0.1,0.1,0.1,0.1,0.2c0.2-0.4,0.3-0.8,0.6-1.1c0.7-1,1.6-1.9,1.9-3c1-2.9,2-5.8,1.9-8.9c-0.1-5.1-0.1-10.3-1.2-15.3
		c-0.4-1.8-0.9-3.5-1.5-5.2c-0.4-1.1-0.9-1.9-2.2-0.9c-1,0.8-2.1,1.7-3.3,2.2c-2.6,1.1-2.9,3.2-2.9,5.6c0.1,2.9,0.1,5.7,0.1,8.6
		c0,3.1-0.2,6.1-0.1,9.2c0,2.6,0.4,5.1,0.5,7.7c0.1,2.1,0,4.1,0,6.3c1.4-1,2.6-1.8,3.9-2.6C125.4,171.6,126.1,170.6,126.9,169.7z"/>
	<path d="M210.7,150.5c-0.1,1.4-0.1,2.8-0.2,4.2c-0.2-0.1-0.4-0.2-0.6-0.3c-0.6,0.2-1.3,0.4-1.7,0.8c-1.5,1.5-2.9,3.2-4.3,4.8
		c-0.2,0.2-0.2,0.6-0.1,1.1c-2.3,1.9-4.6,3.8-7,5.8c0.6,1.3-1.2,1.1-1.7,1.9c-0.5-0.8-1.3-1.5-1.3-2.3c-0.1-3,0-6.1,0-9.1
		c0-1.4-0.2-2.8-0.2-4.2c0-3.1,0-6.2-0.1-9.3c-0.1-2.7-0.3-5.5-0.3-8.2c-0.1-3-0.2-5.9-0.2-8.9c0.1-6.1,0.4-12.2,0.4-18.3
		c0-2.4-0.3-4.7-0.5-7.1c-0.1-1.1,0-2.3,0-3.9c0.5,0.6,0.7,0.8,0.9,1c0-0.3,0-0.6,0-0.8c-1.5,0-0.9-1.1-0.9-1.8
		c-0.1-2.3,0-4.5,0-6.9c-0.3-0.1-0.8-0.2-1.5-0.4c0.4-0.5,0.6-0.9,1-1.1c2-1.6,4-3.1,6.1-4.6c1.2-0.9,2.6-1.5,3.9-2.3
		c1.2-0.8,2.3-1.8,3.5-2.6c0.4-0.3,1-0.2,1.5-0.2c3-0.4,1.7,2,1.8,3.1c0.3,2.6,0.3,5.3,0.3,7.9c0,2.5-0.1,4.9-0.1,7.4
		c0,1.1-0.3,1.8-1.8,1.6c2.6-0.1,1.8,1.6,1.8,2.9c0.1,3.6,0.2,7.2,0.2,10.9c0,2.6,0,5.2,0,7.8c0.1,4.6,0.2,9.1,0.3,13.7
		c0.1,2.5,0.3,5,0.4,7.5c0,2-0.1,4-0.1,6c0,0.6,0.3,1.2,0.3,1.8c0,0.6-0.3,1.2-0.4,1.7C210.3,150.2,210.6,150.4,210.7,150.5
		L210.7,150.5z M195.9,163c0.2,0.1,0.4,0.1,0.6,0.2c1.8-1.9,3.7-3.7,5.5-5.7c1.1-1.2,2.2-2.4,3.1-3.7c0.9-1.4,2.1-2.9,2.3-4.5
		c0.3-2.7-0.2-5.4-0.2-8.2c-0.1-6.5-0.1-13-0.2-19.5c0-4.9,0.1-9.8,0.1-14.8c0-3.6-0.1-7.2-0.2-10.7c-0.1-3.3,0-6.5-0.3-9.8
		c0-0.6-1.4-1.6-1.9-1.5c-2.3,0.5-4.6,1.4-6.9,2c-1.4,0.3-1.8,1.1-1.8,2.4c0,6.4,0,12.8-0.1,19.3c0,1.6-0.1,3.2,0,4.8
		c0.1,2.7,0.3,5.3,0.3,8c0,1.8-0.3,3.5-0.3,5.3c0,9.8,0,19.6,0,29.4C195.9,158.3,195.9,160.6,195.9,163z M208.1,80.3
		c0.1-0.2,0.1-0.5,0.2-0.7c-0.6-0.1-1.2-0.2-1.9-0.3c0,0.1,0,0.3-0.1,0.4C206.9,80,207.5,80.2,208.1,80.3z M208.6,124.5
		c-0.1,0-0.2,0-0.3,0c0,0.2,0,0.5,0,0.7c0.1,0,0.1,0,0.2,0C208.5,124.9,208.5,124.7,208.6,124.5z M208.2,89.2c0-0.1-0.1-0.2-0.1-0.2
		c-0.1,0-0.2,0-0.3,0.1c0,0.1,0,0.2,0.1,0.2C208,89.2,208.1,89.2,208.2,89.2z"/>
	<path d="M151.6,118.6c-0.4,0.6-0.6,0.7-0.6,0.7c-0.3-0.6-0.6-1.3-0.9-2.1c4.3-3,8.8-6.2,13.6-9.6c0,0.9-0.1,1.6-0.1,2.2
		c0,0.2,0.1,0.6,0.3,0.7c1.4,0.6,0.6,1.2-0.1,1.7c-2.6,1.7-5.2,3.4-7.9,4.9c-1.5,0.8-1,2-1,3.1c0.2,7.1,0.6,14.2,0.8,21.4
		c0.1,3.9,0.2,7.9,0.3,11.8c0,0.5,0.1,0.9,0.2,1.7c2.5-2.1,4.7-4,7-5.9c0.4-0.3,1.4-0.5,1.7-0.2c0.6,0.6,1.6,1.5,0.5,2.5
		c-3.1,2.8-6.2,5.6-9.3,8.4c-0.4,0.3-0.5,1.1-0.5,1.6c0.1,5.3,0.3,10.7,0.4,16c0,0.4-0.2,0.8-0.2,1c0.1,1.6,0.3,3.2,0.3,4.7
		c0.1,4,0.1,7.9,0.2,11.9c0,3,0,6,0.1,9.1c0,3,0.2,6.1,0.2,9.1c0,1,0.5,2.5-1.6,2.2c-0.2,0-0.5,0.8-0.9,1.1
		c-0.5,0.4-1.1,0.6-1.6,0.9c-0.1-0.5-0.3-1-0.3-1.6c-0.1-1.5,0-3-0.1-4.5c0-4.3-0.1-8.7-0.1-13c0-3.7,0.1-7.4,0.1-11.1
		c0-3.5-0.3-6.9-0.3-10.4c-0.1-4.2,0-8.4,0-12.5c0-7.2,0-14.4-0.1-21.6c0-5.1-0.1-10.2-0.1-15.2
		C151.6,124.8,151.6,121.9,151.6,118.6z"/>
	<path d="M145,133.5c0.1,1,0.2,1.8,0.2,2.5c0,1.8-0.2,3.6-0.2,5.3c-0.1,2.8-0.1,5.7-0.1,8.5c0,3.3,0.1,6.6,0.1,9.8
		c0,4.2,0,8.4,0,12.6c0,3.9,0.1,7.9,0.1,11.8c0,4.1-0.1,8.1-0.1,12.2c0,2.5,0.1,5,0.1,7.5c0,3.7-0.1,7.4-0.1,11.2
		c0,2.2,0.3,4.5,0.4,6.7c0,0.5-0.4,1.3-0.8,1.5c-1.2,0.5-2.6,0.8-4.3,1.3c-0.1-0.9-0.3-2-0.3-3c0-3.9,0.1-7.8,0.1-11.7
		c0.1-6.5,0.1-12.9,0.1-19.4c0-6.4-0.1-12.7,0-19.1c0-6.5,0.2-12.9,0.2-19.4c0-4.7-0.1-9.5-0.1-14.2c0-3,0-5.9,0-8.9
		c0-1.4-0.2-2.9-0.3-4.3c0-0.2,0-0.5,0.1-0.6c1.1-0.6,2.2-1.2,3.4-1.6c0.2-0.1,0.9,0.6,1,0.9c0.3,2.7,0.5,5.4,0.6,8
		C145.2,132.2,145,133,145,133.5z"/>
	<path d="M189.1,89.7c-0.1,0.3-0.2,0.5-0.3,0.9c0.4,0,0.6,0,1.3,0c-0.4,0.9-0.5,1.8-1.1,2.2c-2.3,1.7-4.7,3.2-7,4.8
		c-0.5,0.4-0.7,1.2-1,1.8c-0.4,0.8-1,1.6-1,2.4c-0.1,3.9-0.1,7.8,0,11.7c0,5.2,0.1,10.3,0.2,15.5c0,2.2,0,4.5,0,6.7
		c1.1-0.7,2.2-1.2,3-1.9c1.2-1.1,2.2-2.4,3.3-3.6c0.6-0.7,2.6-0.6,2.9,0.2c0.1,0.4,0,1.1-0.3,1.4c-2.5,2.2-5.1,4.3-7.7,6.4
		c-1.1,0.9-0.9,1.9-0.8,3c0,0.4-0.1,0.9-0.3,1.7c0,0,0.4,0.5,0.4,1c0.1,5.2,0.2,10.4,0.2,15.6c0,2.8-0.2,5.6-0.1,8.3
		c0,3,0.3,5.9,0.4,8.9c0,0.9,0,1.9,0,2.9c3.7-3.5,7.2-6.9,10.7-10.2c0.5,0.3,0.9,0.6,1.4,0.9c-0.4,2.5-2.6,3.7-4.1,5.3
		c-1.9,2-3.8,3.9-5.8,5.9c-1.2,1.2-2.5,2.4-3.7,3.6c-0.3,0.3-0.5,0.8-0.7,1.2c-0.2,0.3-0.6,0.6-0.9,0.9c-0.3-0.4-0.8-0.7-0.8-1.1
		c-0.1-1.8,0-3.7,0-5.6c-0.1-3.2-0.2-6.3-0.3-9.5c-0.1-3.6-0.3-7.3-0.3-10.9c0-2.8,0.2-5.6,0.3-8.3c0-0.7-0.2-1.3-0.2-2
		c-0.1-4.5-0.2-9-0.2-13.5c-0.1-6.4-0.3-12.9-0.4-19.3c-0.1-4.9-0.2-9.8-0.2-14.7c0-0.3-0.1-0.8-0.3-1c-1.4-1.1-0.6-1.4,0.4-2.2
		c3.4-2.3,6.7-4.8,10-7.3c1.1-0.8,2.1-1.6,3.1-2.4C188.9,89.6,189,89.7,189.1,89.7z M179.1,152.3c0,0,0.1,0,0.1,0
		c0-0.2,0-0.4,0.1-0.5c-0.1,0-0.1,0-0.2,0C179.1,152,179.1,152.2,179.1,152.3z"/>
	<path d="M168.3,124.6c-1-0.8-1.2-8.2-0.3-8.9c-0.3-0.5-0.8-1-0.8-1.4c-0.2-2.6-0.3-5.3-0.2-8c0-0.6,1.1-1.2,1.7-1.9
		c0.3-0.4,0.6-0.7,0.9-1c1.8,0.7,2.1,2,2,3.8c-0.1,2.4,0,4.9,0,7.3c0,0.4-0.3,0.8-0.5,1.1c0.2,0.2,0.5,0.5,0.5,0.8
		c0,2.8-0.2,5.6-0.2,8.4c0,2.4,0.3,4.7,0.3,7.1c0,3.6,0,7.3,0,10.9c0,2.5,0.1,5,0.2,7.6c0,0.5-0.2,1-0.2,1.1
		c0.1,1.5,0.3,2.6,0.3,3.8c0,4.1-0.2,8.3-0.2,12.4c0,3.3,0.3,6.6,0.4,9.8c0.1,4-0.1,8,0.2,12c0.1,1.6-0.4,2.7-1.6,3.5
		c-0.5,0.3-1.1,0.4-1.7,0.4c-0.1,0-0.3-0.8-0.3-1.2c-0.1-4.1-0.3-8.2-0.3-12.3c0-3.3,0.2-6.7,0.1-10c0-2.1-0.5-4.2-0.6-6.3
		c-0.1-0.9,0.1-1.9,0.2-3.2c-0.8-0.7-0.7-8.1,0.1-8.4c-0.2-0.8-0.6-1.6-0.7-2.4c-0.2-2.1-0.3-4.3-0.3-6.4c0-0.3,0.3-0.5,0.3-0.6
		c-0.1-0.4-0.3-0.8-0.3-1.2c0.2-2.6,0.6-5.1,0.7-7.6c0.1-2.6-0.1-5.2-0.2-7.8C167.9,125.6,168.1,125.2,168.3,124.6z M170.7,169.7
		c0.1,0,0.1,0,0.2,0c0-0.6,0-1.2,0-1.7c0-0.1-0.1-0.1-0.1-0.3c0,0.2-0.1,0.3-0.1,0.4C170.7,168.6,170.7,169.1,170.7,169.7z"/>
</g>
<g id="elect" class="animated wobble 3s">
	<path d="M109.5,133c-1.9,1.5-0.8,3.5-1,5.3c-0.3,2.7-0.2,5.5-0.3,8.3c0,1.3,0.1,2.5,0.1,3.8c0.1,3.3,0.2,6.7,0.2,10
		c0,4,0.1,7.9,0,11.9c-0.1,3.4-0.2,6.8-0.4,10.2c-0.1,1.8-0.2,3.5-0.1,5.3c0.1,2.8,0.4,5.6,0.4,8.4c0,1.9-0.2,3.8-0.3,5.7
		c0,1,0.3,2,0.3,3.1c0,2.3-0.3,4.6-0.3,6.9c0,3.2,0.3,6.4,0.4,9.6c0.1,2.6,0.2,5.1,0.1,7.7c0,0.6-0.5,1.3-0.8,2
		c-1.2-0.7-2.4-1.3-3.4-2.1c-0.4-0.3-0.6-1-0.6-1.6c0.1-4.1,0.3-8.2,0.3-12.3c0-5.7,0-11.5,0-17.2c0-5.5-0.1-11,0-16.5
		c0-3.8,0.2-7.6,0.2-11.3c0-3.5-0.1-7-0.1-10.5c0-2.9,0.1-5.7,0.1-8.6c0-4.5-0.1-9.1-0.1-13.6c0-2.3-0.1-4.6,0-6.9
		c0.1-1.4-0.6-2.2-1.6-3c-1-0.8-2-1.5-3.1-2.3c-0.1-0.1-0.3-0.3-0.3-0.3c-1.5,0.7-1.3-0.7-1.6-1.4c-0.1-0.3,0.1-0.7,0.1-1.1
		c0.4,0.1,0.8,0.1,1.1,0.3c2.2,1.6,4.3,3.2,6.5,4.9c3.2,2.4,6.4,4.9,9.7,7.4c-0.1,0.4-0.2,0.9-0.4,1.7
		C112.8,135.4,111.1,134.2,109.5,133c-0.2-0.1-0.5-0.3-0.7-0.4c0,0.1-0.1,0.1-0.1,0.2C108.9,132.8,109.2,132.9,109.5,133z"/>
	<path d="M34.6,77c0,3.1,0,5.8,0,8.6c-0.1,4.3-0.3,8.6-0.3,12.9c-0.1,3.5,0,7,0,10.5c-0.1,5.4-0.3,10.9-0.3,16.3
		c0,0.5,0.8,1.1,1.4,1.5c2.6,1.7,5.2,3.3,7.8,5c0.5,0.3,0.7,1,1,1.6c-0.2,0.2-0.3,0.4-0.5,0.6c-3.2-1.8-6.3-3.6-9.8-5.6
		c0,3.9,0,7.6,0,11.3c-0.1,4.1-0.3,8.2-0.3,12.3c-0.1,3.5,0,7,0,10.5c0,5.1,0,10.2-0.1,15.3c0,1.2,0.4,1.9,1.4,2.5
		c2.2,1.3,4.4,2.6,6.6,4c0.4,0.3,1,0.6,1.1,1c0.2,0.7,0.1,1.5,0.1,2.2c-0.7-0.2-1.5-0.3-2.1-0.6c-2.4-1.5-8.4-4.4-9-4.4
		c-0.3,0-0.7,0.1-0.8,0c-0.3-0.3-0.6-0.8-0.6-1.2c0-6.4,0.2-12.8,0.2-19.3c0.1-5.5,0.1-11,0.2-16.5c0.1-5,0.3-10,0.3-15
		c0-4.1-0.1-8.2,0-12.3c0.1-6,0.2-11.9,0.4-17.8c0.1-5.9,0.3-11.8,0.4-17.7c0-3-0.1-6-0.2-9c0-0.3-0.4-0.5-0.5-0.8
		c-0.1-0.3-0.2-0.7-0.3-1c0.4-0.1,1.1-0.4,1.3-0.2c3.4,2.7,6.8,5.5,10.2,8.3c1,0.8,2.1,1.5,3,2.4c0.4,0.4,0.4,1.1,0.5,1.6
		c0,0.1-0.7,0.5-0.8,0.4c-2.8-2-5.5-4-8.3-6.1C36.1,77.9,35.6,77.6,34.6,77z M33.9,91.6c0.1,0,0.2,0,0.3,0c0-0.4-0.1-0.8-0.1-1.2
		c-0.1,0-0.1,0-0.2,0C33.9,90.8,33.9,91.2,33.9,91.6z M34.2,80.8C34.2,80.8,34.2,80.8,34.2,80.8c-0.1,0.3-0.1,0.6-0.1,0.9
		c0,0,0,0,0.1,0C34.2,81.4,34.2,81.1,34.2,80.8z"/>
	<path d="M49.7,105.9c0-5.8,0-11.7,0-17.5c0-0.1,0-0.2,0-0.4c0.2-0.6,0.3-1.2,0.5-1.8c0.7,0.6,2.3-0.4,2.3,1.5
		c-0.1,2.9,0.1,5.9,0.1,8.8c0,5.8-0.1,11.7,0,17.5c0,4.9,0.1,9.7,0.2,14.6c0.1,4.6,0.3,9.3,0.2,14c0,0.2,0,0.3,0,0.5
		c0,0.2,0,0.4,0,0.5c-0.1,6.1-0.1,12.2-0.1,18.3c0.1,8.3,0.2,16.5,0.4,24.8c0,1.3-0.1,2.7,0.4,3.8c0.4,0.9,1.6,1.6,2.5,2.2
		c2,1.5,4.1,2.8,6.2,4.3c0.5,0.3,0.7,0.9,1,1.7c-0.5-0.2-1.2-0.3-1.6-0.6c-2.7-1.7-5.3-3.5-7.9-5.3c-0.9-0.6-1.8-1.2-2.7-1.8
		c-0.1-0.1-1.5-1.4-1.5-2.3c0-2,0-3.9,0-5.9c0-3.6,0-7.1,0-10.7c0-2.8,0-5.7-0.1-8.5c0-3.6,0-7.1,0-10.7c0-5.1,0-10.1,0-15.2
		c0-3,0.1-6,0.1-9c0.1-4.3,0.1-8.6,0.2-12.9c0-2.5-0.1-5.1-0.1-7.6C49.6,108,49.7,106.4,49.7,105.9z M52.4,154.4c0,0,0.1,0,0.1,0
		c0-0.2,0-0.5-0.1-0.7C52.4,154,52.4,154.2,52.4,154.4z M52.6,172.5c0.1,0,0.1,0,0.2,0c0-0.2-0.1-0.4-0.1-0.7c0,0-0.1,0-0.1,0
		C52.6,172.1,52.6,172.3,52.6,172.5z M52.4,163c0.1,0,0.1,0,0.2-0.1c0-0.1-0.1-0.3-0.1-0.4c0,0-0.1,0-0.1,0
		C52.4,162.7,52.4,162.9,52.4,163z M52.4,145.5C52.4,145.5,52.4,145.5,52.4,145.5c0.1-0.2,0.1-0.4,0.1-0.6c0,0,0,0-0.1,0
		C52.4,145.1,52.4,145.3,52.4,145.5z"/>
	<path d="M75.7,152.5c-0.1,0.4-0.2,0.9-0.4,1.8c-2.7-1.9-5.4-3.7-8.5-5.7c0,2.1,0,4,0,5.9c0,4.9,0,9.7-0.1,14.6
		c0,0.3-0.3,0.7-0.4,0.8c0.2,0.6,0.5,1.1,0.5,1.6c0.1,4.2,0.1,8.3,0.1,12.5c0,3.8,0.1,7.6,0.1,11.4c0,1.3-0.1,2.7,0.1,4
		c0.1,0.7,0.6,1.5,1.1,1.9c3.3,2.2,6.8,4.2,10.1,6.3c-0.1,0.4-0.2,0.9-0.4,1.7c-1.2-0.8-2.4-1.5-3.6-2.3c-1.9-1.2-3.7-2.4-5.6-3.6
		c-1.1-0.6-2.2-1-3.3-1.6c-0.7-0.4-1.3-0.8-1.1-2.1c0.3-1.9,0.1-4,0.1-5.9c0-4.9,0-9.8-0.1-14.7c-0.1-5.3-0.2-10.6-0.3-15.9
		c-0.1-4.9,0-9.7-0.2-14.6c0-0.8-0.1-4.7-0.1-5.4c0-5.1-0.1-10.1-0.1-15.2c-0.1-6.2-0.2-12.4-0.2-18.7c0-3.6-0.1-7.1-0.1-10.7
		c0-0.4,0.4-0.8,0.5-1.2c0.4,0.2,0.9,0.3,1.3,0.6c3.1,2.3,6.2,4.7,9.3,7c0.8,0.6,1.8,1,2.6,1.6c0.2,0.2,0.4,0.6,0.4,0.9
		c-0.1,0.5-0.4,1-0.5,1.4c-0.5-0.2-1-0.3-1.3-0.6c-2.8-2.3-5.5-4.7-8.6-7.3c0,2.6,0,4.8,0,6.9c0,2.3-0.1,4.6-0.1,6.9
		c0,2.8,0.4,5.7,0.1,8.5c-0.3,2.5,0.2,5-0.1,7.5c-0.2,1.8,0.1,3.7,0.1,5.6c0,3.1,0,6.2,0,9.3c0,0.5,0.3,1.3,0.7,1.6
		C70.2,148.9,73,150.7,75.7,152.5z M66.2,133.7c0,0.1,0,0.1-0.1,0.2c0.1,0,0.1,0,0.2,0c0,0,0-0.1,0-0.1
		C66.4,133.8,66.3,133.7,66.2,133.7z"/>
	<path d="M92.8,122.9c-0.3-1.3-0.5-2.7-1.1-3.9c-0.5-1-1.3-2.4-2-2.4c-1.3,0-2.9,0.5-3.8,1.4c-1.9,2-2.7,4.6-2.7,7.4
		c0,5.4,0.1,30.5,0.1,34c0,3.4,0,6.8,0,10.2c0,2.3,0.1,4.7,0.1,7c0.1,3.4,0.2,15.8,0.3,18.7c0.2,3.6,0,7.3,0.8,10.7
		c0.7,2.8,1.7,5.8,4,7.9c1.1,1,3.1,0.4,4.4-1.3c0.3-0.4,0.7-0.9,1.1-1.3c1.3,0.6,1.3,1.5,0.4,2.4c-0.8,0.8-1.6,1.7-2.6,2.4
		c-0.9,0.6-2,0.8-2.9-0.3c-0.3-0.4-1.1-0.3-1.6-0.5c-3-1.1-4.7-4.1-5.3-6.9c-0.8-3.8-0.7-16.3-0.7-18.8c0-3.5,0.2-27.7,0.1-33
		c-0.1-4.2-0.3-19.4-0.3-22.8c0-3.9,0-7.7,0.2-11.6c0.2-4.2,1.8-6.8,5.5-7.8c2.3-0.6,4.3,0.2,6.2,1.4c0.1,0,0,0.3,0.1,0.4
		c0.4,1.6,0.8,3.2,1,4.9c0.1,0.7-0.4,1.4-0.6,2.1C93.3,123,93,123,92.8,122.9z"/>
</g>
</svg>
