<?xml version="1.0" encoding="utf-8"?>
<!-- Generator: Adobe Illustrator 24.0.3, SVG Export Plug-In . SVG Version: 6.00 Build 0)  -->
<svg version="1.1" xmlns="http://www.w3.org/2000/svg" xmlns:xlink="http://www.w3.org/1999/xlink" x="0px" y="0px"
	 viewBox="0 0 299 432" style="enable-background:new 0 0 299 432;" xml:space="preserve">
<g id="text">
	<g id="mend">
		<path d="M67.5,100.1c-0.1-0.1,1.5-1.2,1.7-1.3c0.7-0.3,1.4-0.3,2.1-0.2c1.7,0.1,3.4,0.5,5.1,0.7c2.1,0.2,3,1,4.5,2.3
			c-0.6,0.4-1.3,1.1-1.9,1.1c-1.8-0.1-3.6-0.7-5.4-0.7c-0.5,0-1.1,1.5-1.5,2.3c-0.9,1.7-1.9,3.5-2.7,5.3c-0.2,0.5,0,1.4,0.3,1.8
			c1.7,1.7,3.4,3.2,5.2,4.8c0.5,0.5,1.2,0.8,1.9,1.2c-1.9,1.3-4,0.4-5.2-1c-1.3-1.5-3-2.7-4.5-3.8c-0.2-0.1-1,0.6-1.5,1
			c-2.7,2.3-5.4,4.7-9.3,4.7c-1.7,0-3.5,0.2-4.8-1.1c-0.8-0.8-1.3-1.9-1.7-2.9c-0.5-1.6-0.8-3.3-0.6-4.9c0.3-2.5,1.5-4.7,2.9-6.8
			c0.6-0.9,1.2-1.8,1.9-2.5c0.7-0.7,1.6-1.2,2-2.2c0.3-0.7-0.4-1.8-0.4-2.8c0-4,0.4-7.6,3.6-10.4c1.2-1.1,2.8-1.8,4.4-1.9
			c1.6-0.1,3.4,0.6,4.3,1.9c1.2,1.7,0.9,4.1-0.2,5.9c-1.8,3.1-5.4,5-8,7.3c-0.2,0.2,0,1.2,0.3,1.7c2,2.9,4,5.7,6.1,8.6
			c0.1,0.2,1,0.1,1.1-0.1c1.1-1.9,2.2-3.8,3.1-5.8c0.1-0.2-1.4-1-2.2-1.6C68,100.4,67.8,100.3,67.5,100.1z M56.4,116
			c3.3,0,6.3-1.8,8.6-5c0.2-0.2,0.3-0.6,0.2-0.8c-1.5-1.8-2.9-3.7-4.4-5.5c-0.7-0.9-1.5-1.9-2.1-2.9c-0.6-0.9-1-1.9-2.2-1
			c-3.6,2.8-4.4,7.1-4,11.5C52.8,114.5,53.2,116.1,56.4,116z M66.6,86.1c0-0.8-0.3-1.3-1.5-1.3c-1.8,0-2.9,0.7-3.9,1.6
			c-2.3,2.2-3.5,5-3,8.3c0,0.3,0.1,0.5,0.2,0.8c0.3-0.1,0.6-0.2,0.8-0.4c0.8-0.6,1.5-1.3,2.3-1.9c1.4-1,2.6-2.2,3.6-3.7
			C65.6,88.9,66.6,87.3,66.6,86.1z"/>
		<path d="M201.3,99.9c0-2.8-0.1-5.6,0.1-8.4c0-0.5-0.2-3.4,0.2-3.9c0.5,0.5,2.4-0.1,2.5,0.4c0.4,2.9,0.8,9.4,0.9,12.3
			c0.2,3.8,0.1,7.5,0.1,11.3c0,0.9,0,1.7,0.1,2.6c0.2,1.4-0.3,1.8-1.8,1.8c-1.8,0.1-1.5-0.9-1.6-1.9c0-0.7-0.4-1.3-0.6-1.9
			c-0.4,0.2-0.8,0.3-1.1,0.6c-2,1.2-5.3,0.4-6.8-1.5c-2.1-2.7-2.2-5.6-1.2-8.6c0.7-2.2,3.9-3.9,6.1-3.3
			C199.2,99.5,200.2,99.7,201.3,99.9z M197.2,101.8c-1.7,0.4-2.7,1.5-3,3.2c-0.2,1-0.1,2,0,2.9c0.1,0.8,0.2,1.6,0.8,2.2
			c0.7,0.8,2,1,3,0.6c1-0.4,1.8-1.2,2.3-2.2c1.3-2.2,0.8-4.2-0.5-6.3C199.5,101.8,197.4,101.8,197.2,101.8z"/>
		<path d="M242.2,99.6c2.5,2.1,0.1,3.7-0.4,5.3c-1.8,5.2-3.9,10.2-6,15.2c-2.3,5.6-4.8,11.1-7.3,16.6c-0.2,0.5-1.5,0.6-2.3,0.9
			c0.2-0.8,0.2-1.6,0.5-2.3c1.4-3.6,2.9-7.2,4.4-10.8c1.1-2.7,2.2-5.4,3.3-8.1c0.5-1.2-0.8-4.2-2-5.6c-2.2-2.6-4.1-5.3-6.1-8.1
			c-0.1-0.1,0-0.5,0.1-0.5c0.4-0.1,1-0.3,1.3-0.1c1.3,1.2,2.6,2.4,3.8,3.7c1.5,1.7,2.9,3.5,4.4,5.3c0.1,0.1,0.2,0.1,0.2,0.1
			c0.2-0.4,0.5-0.9,0.7-1.3c0.9-2,1.9-4,2.8-6.1c0.5-1.1,0.9-2.2,1.5-3.2C241.3,100.1,241.9,99.8,242.2,99.6z"/>
		<path d="M103.5,149.1c-0.1,1.5,0.2,3.1,0.3,4.6c0,0.4-0.2,1.2-0.4,1.2c-0.9,0.2-1.8,0.3-2-1c-0.5-2.6-0.9-5.2-1.6-7.8
			c-0.3-1-0.9-2.5-2.1-2.4c0,0-0.1,0-0.1,0c-2.3,0-2.9,2.4-3,3.2c-0.4,3.2,0.1,6.4,0.1,9.6c0,0.4-0.6,1.1-0.7,1.1
			c-0.6-0.2-1.7-0.6-1.8-1c-0.4-4.4-0.7-8.8-1-13.2c0-0.3,0.4-0.9,0.8-1c2-0.6,0.8,1.6,1.5,1.4c0.6-0.1,0.9-2.1,3.4-2.2
			c2.4-0.1,3.3,0.2,4.8,2.4c0.1,0.1,0.5,0.1,0.7-0.1c1.2-0.9,2.4-2.6,3.6-2.6c2.1,0.1,4.4,0.7,5.8,2.9c1.7,2.6,2.3,5.5,2.4,8.6
			c0,0.6,0.2,1.2,0.3,1.9c0,0.3-0.1,0.8-0.3,0.9c-0.4,0.2-0.9,0.2-1.3,0.2c-2.6-0.5-1.8-2.8-2-4.3c-0.4-3.4-0.8-5.7-3.2-7.5
			c-0.9-0.7-2.2,0-2.8,0.8C103.5,146.6,103.5,148.8,103.5,149.1z"/>
		<path d="M173.4,142.2c-0.2-2.3-0.4-4.8-0.6-7.3c-0.2-1.8-0.5-3.6-0.6-5.4c0-0.4,0.6-0.9,0.9-1.3c0.3,0.5,0.9,0.9,1,1.4
			c0.6,3.8,1,7.7,1.5,11.5c0.5,3.6,1,7.3,1.5,10.9c0.1,0.4,0,1-0.2,1.1c-0.5,0.3-1.1,0.5-1.6,0.4c-0.3-0.1-0.6-0.8-0.7-1.3
			c-0.2-0.6-0.2-1.2-0.2-1.4c-1.8,0.9-3.4,2.1-5.2,2.6c-4.4,1.1-8-0.5-9.5-5.4c-1.5-4.8,2.5-9.4,7.5-8.6
			C169.2,139.8,171.2,141.2,173.4,142.2z M172.6,147.1c0-2.6-3.5-6-6.3-5.8c-2.7,0.2-4.1,1.2-4.1,5.7c0,2.6,2.2,4.8,4.8,4.7
			C169.6,151.8,172.6,149.2,172.6,147.1z"/>
		<path d="M206.4,23c-0.5,0.8-1,1.4-1.2,2c-0.6,1.4-0.8,3-1.5,4.4c-2.2,4.9-4.4,9.7-6.7,14.5c-1.5,3.1-3.1,6.2-4.7,9.3
			c-0.1,0.3-0.9,0.2-1.3,0.3c-0.5,0.1-0.9,0.3-1.4,0.4c-0.2,0.1-0.4,0.1-0.6,0.2c0-0.3-0.1-0.7,0-0.9c1.5-2.7,3.2-5.3,4.6-8.1
			c1.3-2.6,2.2-5.4,3.2-8.2c0.1-0.2-0.2-0.5-0.4-0.7c-1.2-1.2-2.5-2.4-3.7-3.7c-2-2.2-3.9-4.4-5.7-6.7c-0.2-0.2-0.2-0.7,0-1
			c0.8-1.3,1.8-1.2,2.7-0.2c1.1,1.2,2.1,2.5,3.2,3.7c1.5,1.8,3.1,3.7,4.6,5.5c0.1,0.2,0.7,0.1,1,0c0.2-0.1,0.4-0.5,0.5-0.8
			c1.5-3.3,2.9-6.6,4.5-9.8c0.3-0.6,0.9-1.2,1.6-1.5C205.2,21.7,205.8,22.5,206.4,23z"/>
		<path d="M152.8,33.2c-1.7-1.9-1.9-4.8-1.3-7.1c0.6-2.3,2.8-3.6,5-4.1c1.2-0.2,2.4-0.3,3.5,0c0.9,0.2,2.6,1.8,2.7,0.4
			c0.1-0.9-0.1-2.6-0.1-3.5c0-1-0.3-2.5,0.1-3.5c0.1-0.4,1.8-1.7,1.8-1.7c0.2,0.6,0.7,1.2,0.7,1.9c0,4.8,0,9.6,0,14.4
			c0,1.5,0.2,3,0.3,4.6c0,0.2-0.4,0.7-0.5,0.7c-0.5-0.2-1.2-0.3-1.6-0.7c-0.5-0.6,0.1-2.5-0.9-2c-1.6,0.7-3.2,1.8-4.9,2.1
			c-1.3,0.2-3,0-4.1-0.8C153.2,33.6,153,33.4,152.8,33.2z M161.5,24.8c-0.3-0.2-0.8-0.9-1.3-1c-2.6-0.6-6.2,2.3-6.3,5
			c0,2.2,0.8,3.1,2.8,2.8C159.9,31.1,161.4,29.1,161.5,24.8z"/>
		<path d="M108.6,110c1.3,1.8,0.2,4-2.6,5.1c-1.5,0.6-4.6,0-5.8-0.9c-3.7-2.8-3.8-6.4-2.9-10.2c0.7-3,4.4-5.5,7.7-5.2
			c2,0.2,3,1.6,3.8,3.2c0.4,0.8,1,1.6,1.3,2.4c0.2,0.4,0.2,1.1-0.1,1.3c-0.5,0.4-1.2,0.8-1.8,0.8c-2.6,0.1-5.1-0.1-7.7,0
			c-0.3,0-0.9,0.4-1,0.8c-0.5,2.3,0.2,4.5,2.4,5.7c1,0.5,3,0,4.3-0.5C107.2,112,107.8,110.9,108.6,110z M107.4,104.7
			c-0.1-0.4-0.2-0.8-0.3-1.1c-0.5-1.5-0.7-3.3-3.3-3.1c-1.6,0.1-4.2,2.8-4,4.3c0,0.1,0.3,0.3,0.5,0.3c1.6-0.1,3.2-0.2,4.8-0.3
			C105.8,104.7,106.6,104.7,107.4,104.7z"/>
		<path d="M222.8,114.7c0,0.5-0.2,1.4-0.5,1.4c-0.8,0.1-1.7,0.1-2.5-0.2c-0.2-0.1-0.2-1.1-0.2-1.7c0-0.6,0.1-1.2,0.1-1.8
			c-0.5,0.2-1.1,0.4-1.6,0.7c-3.1,1.7-7.9-0.5-8.9-3.9c-0.9-3.6-0.2-6.7,2.5-9.2c1.8-1.7,5.2-2,7.3-0.8c0.2,0.1,1.2,0.6,1.4,0.4
			c0.5-0.3,0.3-1.1,0.8-1.5c0,0,1.4-0.5,1.7,0.1C223.1,98.4,222.9,110,222.8,114.7z M218.4,102.3c-1.1-1.2-4.6-1.6-5.6,0.2
			c-1.4,2.5-1.5,4.9,0.1,7.1c0.8,1,2.7,2,3.8,1.7c2-0.6,3.2-2.5,3.2-4.8C219.9,105.7,219.8,103.9,218.4,102.3z"/>
		<path d="M168.9,111.9c-0.8-0.8-1.6-1.7-2.3-2.6c-2-2.6-3.9-5.2-5.8-7.8c-0.2-0.3,0-1-0.1-1.4c0.6,0.2,1.3,0.3,1.7,0.8
			c2.4,2.8,4.7,5.7,7.1,8.6c0.1,0.1,0.8,0,0.9-0.2c1.4-2.8,2.8-5.6,4.2-8.4c0.1-0.3,1-0.4,1.3-0.2c0.3,0.2,0.7,0.9,0.6,1.2
			c-1.1,2.7-2.2,5.4-3.5,8c-0.9,1.9-2.1,3.7-3,5.6c-0.9,2-1.7,4-2.6,6c-1.1,2.4-2.3,4.8-3.5,7.2c-0.8-0.4-2.1,1.3-2.4-0.7
			c0-0.3,0.2-0.6,0.3-0.9c2.1-4.3,4.1-8.6,6.2-12.9C168.3,113.4,168.5,112.8,168.9,111.9z"/>
		<path d="M122.5,23.3c3.8,1.2,5.7,4.1,7.9,6.7c0.1,0.1,0.7,0,0.8-0.2c1.5-2,2.9-4.1,4.4-6.1c0.2-0.3,0.8-0.4,1.3-0.6
			c0.2,0.6,0.7,1.4,0.4,1.8c-1.4,2.3-11.9,18.4-14.8,22.7c-0.2,0.4-0.8,0.5-1.1,0.8c-0.2-1-0.8-2.4-0.4-3.1c2.2-3.7,4.6-7.3,7-10.9
			c0.2-0.3,0.5-0.5,0.7-0.8c1.9-2-0.5-2.6-1.3-3.6c-1.5-1.7-3.3-3.2-4.8-4.9C122.2,24.7,122.5,24,122.5,23.3z"/>
		<path d="M139.9,141.1c2.4-2.1,5.2-2.5,7.8-1.6c1.4,0.5,2.7,2.3,3.2,3.8c0.8,2.2,0.6,4.8,1.2,7.1c0.5,1.9-0.6,2.5-1.9,2.5
			c-0.4,0-1-1.6-1.3-2.5c-0.7-2.3-1-4.7-1.9-6.9c-0.3-0.7-1.6-1.5-2.5-1.5c-1.8,0-3.3,0.9-3.5,2.9c-0.2,2.1-0.2,4.1-0.4,6.2
			c0,0.4-0.7,1.2-0.8,1.1c-0.6-0.2-1.5-0.6-1.6-1c-0.2-1.7-0.1-3.4-0.2-5.1c-0.1-1.9-0.5-3.8-0.6-5.7c0-0.5,0.4-1.1,0.7-1.6
			c0.4,0.2,0.8,0.4,1.1,0.7C139.7,140,139.8,140.6,139.9,141.1z"/>
		<path d="M129.1,105.8c0.8-2.6,0.5-5.1,2.9-5.9c1.2-0.4,2.7-0.3,4.1-0.3c2.9,0.1,4.2,1.9,5.1,4.3c0.6,1.5-0.5,3.1-2.1,3
			c-2.1-0.1-4.1-0.1-6.2-0.1c-0.2,0-0.7,0.6-0.6,0.8c0.8,2.1,2,4.1,4.3,4.3c1,0.1,2.1-1.2,3.2-1.9c0.1-0.1,0.1-0.2,0.2-0.3
			c0,0,0.2,0.1,0.2,0.2c0.2,0.7,0.9,1.7,0.6,2.1c-2.7,3.8-6.7,2.7-9.2-0.6C130.4,109.7,129.8,107.4,129.1,105.8z M138.6,105
			c-1.2-1.4-2.1-2.8-3.2-3.7c-0.5-0.4-2-0.1-2.4,0.4c-0.6,0.7-0.7,1.9-1,2.9c0.6,0.2,1.3,0.4,2,0.4C135.2,105.1,136.6,105,138.6,105
			z"/>
		<path d="M93.8,29.8c0.6-3.1,0.4-6.5,4-8.2c2.3-1.1,7,1.3,7.2,3.9c0.1,1.2,0,2.4-0.1,3.5c0,0.2-0.4,0.6-0.6,0.6
			c-2.4-0.2-4.9-0.4-7.3-0.6c-0.2,0-0.6,0-0.6,0c-0.1,0.7-0.6,1.7-0.3,2c1.1,1.3,2.2,3.1,3.7,3.5c1.1,0.3,2.6-1.3,4-2
			c0.5-0.3,1.1-0.5,1.7-0.6c0.2,0,0.7,0.4,0.7,0.5c-0.1,0.6-0.2,1.3-0.5,1.6c-2.9,2.9-5.5,3.5-8.6,1.5
			C95.1,34.3,93.4,32.5,93.8,29.8z M101.9,27.8c0.4-0.4,1.1-1,1.1-1.1c-0.6-1-1.2-2.1-2.1-3c-0.4-0.4-1.5-0.8-1.8-0.6
			c-0.9,0.7-1.7,1.6-2.3,2.5c-0.3,0.5-1,1.8,0.7,1.8C98.9,27.5,101.8,27.6,101.9,27.8z"/>
		<path d="M184.5,36.3c0,0.3-0.5,0.8-0.6,0.8c-0.6-0.3-1.2-0.8-1.8-1.1c0,0,0-0.1,0-0.1c-0.1-0.9-0.2-1.8-0.3-2.6
			c-0.7,0.4-1.4,0.8-2.1,1.3c-1.8,1.2-7.2,0.5-8-1.1c-1.5-2.9-0.9-5.6,1.6-7.7c2-1.7,4.4-2,6.9-1.9c0.3,0,1.2,0.5,1.6,0.7
			c0.4,0.3,0.1-2.2,0.4-2.6c0.4,0.1,1.7-0.2,1.8,0.2C184.3,24.7,184.3,34.5,184.5,36.3z M173.4,31.6c0.5,1.1,1.6,1.7,2.8,1.8
			c1.5,0.1,3.1-0.5,4-1.7c2-2.5,2-4.2,0.2-5.5c-1.6-1.1-3-0.6-4.4,0.2c-1.3,0.8-1.9,1.2-2.6,2.4C172.9,29.8,173.2,31.2,173.4,31.6z"
			/>
		<path d="M204.4,144.5c-0.1-2.1-0.1-4.2-0.4-5.6c-0.1-0.5-1.5-0.7-2.2-1.1c-0.5-0.3-0.8-0.8-1.2-1.1c0.4-0.2,0.8-0.5,1.2-0.5
			c0.7-0.1,1.9,0.9,1.9-0.2c0.1-1.8,0.1-3.7,0-5.5c0-0.3-0.3-4.2,0.7-3.6c0.4,0.2,0.9,0.6,0.9,1c0.2,1.9,0.4,3.8,0.5,5.7
			c0.1,1.7,0.1,1.7,0.2,2.6c0.1,0.6,3.1-0.1,3.7-0.1c0.2,0,2,0.5,1.9,0.6c-0.5,0.5-1,1.4-1.6,1.5c-1.1,0.3-2.3,0.2-3.4,0.3
			c-0.1,0-0.4,0.3-0.4,0.4c0.3,2.8,0.5,5.7,1,8.4c0.2,0.9,2.1,3.3,3.7,0.6c0.3-0.5,1-0.4,1.6-0.6c-0.1,0.8,0.1,1.7-0.3,2.3
			c-0.9,1.7-2.5,2.3-4.3,1.8C205.2,150.6,204.6,147.6,204.4,144.5z"/>
		<path d="M84.2,72.8c0.9,1.2-0.5,1.9-1.4,2.5c-1.8,1.2-3.5,0.8-4.9-0.6c-1.3-1.3-2.5-3-2.9-4.9c-0.3-1.5-0.5-3.1-0.7-4.6
			c-0.1-0.7-0.1-1.4-0.2-2.1c-0.2-1-0.7-2-0.7-2c-1.1,0-3.6,0.7-3.6-0.4c0.4-0.3,0.9-0.7,1.3-0.7c0.8-0.1,1.8-0.1,2.3-0.9
			c0.7-1,0.3-2.8,0.4-3.9c0.1-0.8,0.3-1.5,0.6-2.3c0.1-0.3,0.3-0.8,0.6-0.8c0.7,0.9,1,2,1,3.2c0,0.7-0.5,4,0.6,4
			c1.2,0,2.4,0,3.7,0.1c0.4,0,0.7,0.6,1,0.9c-0.8,0.5-1.2,0.7-2.1,0.7c-0.8,0-2-0.4-2.7,0c-0.6,0.4-0.4,1.2-0.3,1.8
			c0.7,2.8,1.1,5.7,1.9,8.5c0.2,0.9,1.1,2.2,1.8,2.2C81.2,73.6,82.7,73.1,84.2,72.8z"/>
		<path d="M66.6,154.6c0-4.1,0.1-8.1,0-12.2c-0.1-3.2-0.4-6.4-0.5-9.6c0-0.5,0.5-0.9,0.8-1.4c0.6,0.4,1.8,0.8,1.8,1.2
			c0.3,6.1,0.4,12.1,0.6,18.2c0,2.1,0,4.2-0.1,6.3c0,0.4-0.6,1-0.9,1c-0.5-0.1-1.4-0.4-1.5-0.8c-0.3-0.9-0.2-1.9-0.2-2.8
			C66.5,154.6,66.6,154.6,66.6,154.6z"/>
		<path d="M125.5,99.4c0,0,0.1,0.2,0.2,0.3c0.3-0.1,0.5-0.1,0.7-0.2c0,0.5,0.1,1.1-0.1,1.5c-1.8,3.4-3.6,6.8-5.4,10.2
			c-0.4,0.8-0.8,1.6-1.2,2.3c-0.1,0.2-0.3,0.3-0.4,0.3c-0.7-0.1-1.7-0.1-1.9-0.5c-1.4-3.1-2.5-6.2-3.9-9.3c-0.6-1.3-1.4-2.4-2.1-3.7
			c-0.1-0.2,0.2-0.8,0.3-0.8c1-0.2,1.8-0.2,2.3,1.2c0.6,1.9,1.7,3.7,2.6,5.5c0.5,1.1,1,2.2,1.5,3.3c0.1,0.2,0.3,0.4,0.4,0.7
			c0.2-0.2,0.4-0.4,0.5-0.7c1.7-3.1,3.3-6.2,5-9.2C124.3,99.9,125,99.7,125.5,99.4z"/>
		<path d="M85,29.5c1.2-2.6,2.4-5.2,3.7-7.7c0.2-0.3,1.2-0.2,1.8-0.2c0,0,0.2,0.7,0.1,1c-1.3,3.2-2.6,6.5-4,9.7
			c-0.4,0.8-1.1,1.5-1.6,2.3c-0.6-0.5-1.4-0.8-1.6-1.5c-1.4-3.4-2.7-6.8-4-10.2c-0.1-0.2,0.3-0.8,0.4-0.8c0.7,0.1,1.8,0.1,2.1,0.5
			c1.1,2.1,2,4.3,3,6.5C84.8,29.4,84.9,29.5,85,29.5z"/>
		<path d="M149.4,105.1c0.3,2.5,0.6,4.6,0.8,6.8c0,0.4-0.2,0.8-0.3,1.1c-0.6-0.2-1.8-0.3-1.8-0.6c-0.4-2.5-0.7-4.9-1-7.4
			c-0.1-1.2-0.1-2.4-0.1-3.6c0-0.3,0.2-0.8,0.4-0.8c1.8-0.4,3.6-0.8,5.4-0.9c2-0.2,4.5,2.3,4.5,4.4c0,0.2-0.4,0.7-0.5,0.6
			c-0.7-0.2-1.4-0.3-1.9-0.8c-0.9-0.7-1.5-2.1-2.4-2.3c-0.8-0.1-1.8,1.1-2.6,1.9C149.5,104,149.5,104.8,149.4,105.1z"/>
		<path d="M109.6,30.3c0-2.4,0-4.8,0-7.2c0-0.2,0.6-0.5,1-0.6c0.6-0.1,1.3-0.2,1.9-0.2c2.1-0.1,4.2-0.2,6.3,0c0.4,0,0.6,1.3,0.9,2
			c-0.8-0.1-1.7,0-2.2-0.3c-2-1.2-3.6-0.5-4.6,1.1c-0.7,1.2-0.8,2.8-1,4.2c-0.2,1.7-0.2,3.5-0.4,5.3c0,0.2-0.7,0.5-0.9,0.5
			c-0.5-0.3-1.1-0.8-1.2-1.2C109.4,32.7,109.5,31.5,109.6,30.3C109.6,30.3,109.6,30.3,109.6,30.3z"/>
		<path d="M65.9,68.2c0,1.9,0.1,3.8,0,5.6c-0.1,0.7-0.6,1.4-1,2.1c-0.1,0.2-1,0.1-1.1-0.1c-0.2-0.6-0.4-1.3-0.4-2c0-1.8,0-6.4,0-8.2
			c0-1.7,2.3-1.9,2.4,0.2C65.8,66.1,66.1,68.2,65.9,68.2C65.9,68.2,65.9,68.2,65.9,68.2z"/>
		<path d="M196.6,141.2c-0.7,4.6-1.2,8.1-1.9,11.4c-0.1,0.3-0.9,0.7-1.3,0.7c-0.4-0.1-0.9-0.7-0.9-1.1c0.3-2.6,0.6-5.2,1-7.9
			c0.1-1,0.4-2,0.7-2.9c0.1-0.3,0.5-0.6,0.8-0.6C195.8,140.9,196.6,141.2,196.6,141.2z"/>
		<path d="M222.5,147.1c1.6-0.3,2,0.7,2.1,2.1c0.1,1.6-1.5,3.8-2.9,3.7c-0.9-0.1-2.5-0.4-2.6-0.9C218.7,149.1,220.1,147,222.5,147.1
			z"/>
		<path d="M63.2,57.7C63,57.4,62.9,57,63,56.6c0.1-1.1,0.8-2.1,2.1-1.9c0.8,0.1,2,1.2,2.1,2c0.1,0.7-0.6,1.5-1.2,1.8
			c-0.8,0.5-1.5,0.2-2.3-0.3C63.5,58,63.3,57.8,63.2,57.7z"/>
		<path d="M194.5,135.7c-3.5-1.4,0.7-6.5,1.7-2.2C196.4,134.4,195.7,136.1,194.5,135.7z"/>
		<path d="M76.3,31.7c1.2,1.6,0.2,3.7-2.5,4.7c-1.4,0.6-4.4,0-5.5-0.8c-3.5-2.6-3.6-5.9-2.8-9.3c0.7-2.8,4.2-5.1,7.3-4.8
			c1.9,0.2,2.9,1.5,3.6,2.9c0.4,0.8,0.9,1.4,1.3,2.2c0.2,0.4,0.2,1-0.1,1.2c-0.5,0.4-1.1,0.7-1.8,0.7c-2.4,0.1-4.9,0-7.3,0
			c-0.3,0-0.9,0.4-0.9,0.7c-0.5,2.1,0.2,4.1,2.3,5.3c0.9,0.5,2.8,0,4.1-0.5C74.9,33.5,75.5,32.5,76.3,31.7z M75.1,26.8
			c-0.1-0.4-0.2-0.7-0.3-1c-0.5-1.4-0.6-3.1-3.1-2.9c-1.5,0.1-3.9,2.6-3.8,3.9c0,0.1,0.3,0.2,0.4,0.2c1.5-0.1,3-0.2,4.5-0.3
			C73.6,26.7,74.3,26.8,75.1,26.8z"/>
		<path d="M132.2,149.8c1.4,1.9,0.2,4.2-2.8,5.5c-1.6,0.7-4.8,0-6.1-1c-3.9-3-4-6.8-3.1-10.8c0.7-3.2,4.7-5.9,8.1-5.6
			c2.1,0.2,3.2,1.7,4,3.4c0.4,0.9,1,1.7,1.4,2.6c0.2,0.4,0.2,1.1-0.1,1.4c-0.5,0.4-1.3,0.8-1.9,0.8c-2.7,0.1-5.4-0.1-8.1,0
			c-0.4,0-1,0.5-1,0.8c-0.6,2.5,0.3,4.8,2.5,6.1c1,0.6,3.1,0,4.5-0.5C130.7,151.9,131.4,150.7,132.2,149.8z M130.9,144.1
			c-0.1-0.5-0.2-0.8-0.4-1.1c-0.5-1.6-0.7-3.6-3.4-3.4c-1.7,0.1-4.4,3-4.2,4.6c0,0.1,0.3,0.3,0.5,0.3c1.7-0.1,3.3-0.2,5-0.3
			C129.2,144,130.1,144.1,130.9,144.1z"/>
	</g>
</g>
<g id="fall">
	<g id="falls_x5F_apart_2_">
		<path d="M104.9,60.8c3.7,0.1,3.2-0.5,4.1-3.6c0.7-2.3,1.8-4.2,4-5c1.1-0.4,2.8-0.4,3.7,0.2c0.7,0.5,0.7,2.2,0.8,3.3
			c0.1,0.4-0.3,0.9-0.5,1.3c-0.9-0.9-1.7-1.7-2.2-2.9c-0.1-0.3-2.4,1.7-2.5,1.9c-0.7,1-0.9,2.1-1.3,3.2c-0.1,0.3,0,0.9,0,0.9
			c0.7,0.1,1.4,0.1,2.1,0.2c0.6,0.1,1.2,0.3,1.7,0.6c0.2,0.1,0.3,0.7,0.2,0.7c-0.5,0.2-1,0.5-1.5,0.5c-3.6,0.1-3.8,0.4-4.5,4.4
			c-0.7,3.8-1.6,7.5-2.3,11.3c-0.5,2.4-0.7,5-1.6,7.3c-0.7,1.7-2,3.3-3.4,4.5c-0.7,0.6-2.6,1-3.2,0.5c-1.8-1.3-3.7-2.8-3.2-5.5
			c0.1-0.6,0.8-1.1,1.2-1.6c0.3,0.4,0.8,0.7,0.9,1.2c0.3,1,0.2,3.4,1.2,4c0.6,0.3,1.3-0.1,1.9-0.4c0.4-0.3,0.8-0.6,1.1-0.9
			c1.1-1.4,1.3-4.2,1.8-5.9c1.4-6,3.1-12.2,4-18.3c0-0.1-1-0.3-1.5-0.4c-0.5-0.1-1.1,0-1.6-0.3c-0.3-0.2-0.5-0.7-0.7-1.1
			C104.2,61,104.8,60.8,104.9,60.8z"/>
		<path d="M200.1,71.6c-1.8-0.6-2.2,0.4-2,2.3c0.4,3.1,0.7,6.1,1,9.2c0,0.2-0.2,0.6-0.3,0.6c-0.7-0.1-1.9-0.2-1.9-0.5
			c-0.4-1.4-0.4-3-0.6-4.5c-0.5-3.2-1.1-6.4-1.4-9.6c-0.2-2.1-0.2-4.3-0.2-6.4c0-0.7,0-1.4,0.1-2c0-0.2,0.3-0.4,0.5-0.5
			c0.1,0,0.4,0.1,0.5,0.2c0.9,1.4,1.9,1,3.3,0.7c1.6-0.4,3.5-0.3,5.1,0.2c1.9,0.6,3.5,2.1,3.6,4.3c0.1,3.9-1.9,5.8-5.8,5.9
			C201.4,71.6,200.9,71.6,200.1,71.6z M200.9,62.7c-2.1,0-3.8,1.6-3.6,3.8c0.1,1.4,0.1,3.3,2.2,3.4c3.3,0.2,5.8-1.3,5.8-3.3
			C205.4,64.3,203.6,62.8,200.9,62.7z"/>
		<path d="M250.3,52.7c0,1.3,0,2,0,2.6c-0.1,2.2,0.7,2.5,3.6,2.3c1.3-0.1,2.6,0.5,4,0.8c-0.2,0.3-0.3,1-0.5,1
			c-2,0.3-4.1,0.4-6.1,0.7c-0.3,0-0.8,0.8-0.8,1.2c0,3.2,0,6.3,0.4,9.5c0.2,1.6,1.3,3.2,2.2,4.7c0.2,0.4,1.2,0.5,1.7,0.4
			c0.8-0.3,1.6-0.8,2-1.5c0.4-0.6,0.3-1.5,0.5-2.2c0.1-0.3,0.4-0.8,0.8-0.9c0.3-0.1,0.9,0,1.1,0.2c0.2,0.3,0.4,0.9,0.3,1.2
			c-0.7,1.6-1.2,3.5-2.4,4.6c-1.9,1.7-5.1,0.7-6.7-2.1c-1.1-1.8-1.7-4.1-2-6.2c-0.3-2.4-0.1-4.8-0.1-7.3c0-1.9-1.5-1-2.4-1.3
			c-0.7-0.2-1.4-0.8-2.1-1.2c0.7-0.4,1.4-1.2,2-1.1c2.5,0.3,2.4-1.2,2.3-2.9c-0.1-1.5,0.1-3,0.2-4.5c0-0.1,0.4-0.3,0.4-0.3
			c0.5,0.2,1.2,0.4,1.4,0.9C250.3,51.8,250.3,52.7,250.3,52.7z"/>
		<path d="M223.8,75.1c-0.7-0.9-1.4-1.9-2.1-2.8c-0.7,0.3-1.8,0.9-3,1.3c-2.7,1-5.6-0.7-6.4-3.5c-0.7-2.5-0.6-4.9,0.6-7.2
			c1.1-2,3.7-2.5,6.6-1.5c0.2,0.1,0.5,0.1,0.7,0.2c0.6,0.3,1.4,1.1,1.1-0.6c-0.1-0.3,1-0.8,1.5-1.3c0.3,0.4,0.8,0.7,0.8,1.1
			c0.3,4.1,0.6,8.3,0.8,12.4c0,0.5-0.1,1-0.1,1.5C224.1,74.8,224,75,223.8,75.1z M216.8,71.3c1.8,0.1,3.7-3.2,3.8-5.5
			c0.1-1.5-1.7-3.4-3.1-3.4c-2.1,0-3.5,1.8-3.6,4.9C213.9,69.4,215.2,71.3,216.8,71.3z"/>
		<path d="M161.4,59.8c-0.2-0.7-0.4-1.5-0.5-1.6c-0.3-0.9-0.7-2.1-1.6-2.6c-1.1-0.5-2.2,1.5-2.4,2.3c-0.7,3.2,1.5,4.8,3.8,6.2
			c1.9,1.2,3.6,2.6,3.1,5.3c-0.4,2.4-3.9,4.4-6.2,3.3c-2.6-1.3-3.9-3.6-3.3-6.5c0.1-0.4,1.4-0.6,2.2-0.8c0.1,0,0.4,0.7,0.5,1.1
			c0.3,0.9,0.8,5.4,2.7,4.4c1.2-0.7,1.5-2.8,0.8-3.8c-0.7-1.1-1.9-1.6-2.9-2.4c-4-3.1-4.8-7.1-1.1-10.8c0.9-0.9,4.1-0.1,5.3,1.4
			c1.2,1.5,2.2,3.2,1,5.2C162.6,60.7,161.6,60.6,161.4,59.8z"/>
		<path d="M129.4,69.6c-2.8,2.6-5.6,2.5-8.4,0.7c-1.7-1.1-2.3-5.2-1.5-7.1c1.5-3.4,4.3-3.6,7.3-3.6c0.3,0,0.6,0.2,0.9,0.3
			c1.9,0.4,0.8-1.2,1.3-1.8c0.2-0.2,0.4-0.7,0.5-0.7c0.6,0.2,1.6,0.4,1.7,0.7c0.3,4.7,0.6,9.5,0.7,14.2c0,0.5-1.8,0.8-1.9,0.3
			C129.6,71.7,129.6,70.7,129.4,69.6z M121.5,65.5c0,0.4-0.1,0.9,0,1.3c0.4,1.8,1,3.4,3.3,2.8c1.7-0.5,3-1.4,3.7-3.4
			c0.9-3-0.1-5-3.1-4.8C122.6,61.6,121.5,62.8,121.5,65.5z"/>
		<path d="M139.1,73.6c-3.4-1.3-1.9-4-1.9-6c0-4.7,0.2-9.3,0.3-14c0-1,0-2.1,0.2-3c0.1-0.4,1-0.7,1.5-0.8c0.2,0,0.7,0.8,0.7,1.3
			c0,3.5,0,7-0.1,10.5c-0.1,2-0.3,8.5-0.3,9.7C139.6,71.9,139.3,72.7,139.1,73.6z"/>
		<path d="M229.9,70.1c0-2.4,0-5.1,0-7.7c0-0.3,0.4-1,0.6-1c0.6,0.1,1.2,0.4,1.8,0.6c0.2,0.1,0.6,0.2,0.7,0.1
			c1.3-0.9,2.5-1.6,4.1-0.9c1,0.4,2.2,0.3,3.2,0.7c0.5,0.2,1,0.8,1.3,1.3c0.2,0.4,0.1,0.9,0.1,1.4c-0.5,0-1.2,0.1-1.6-0.1
			c-2.7-1.9-4.7-1.7-6.5,1.3c-0.8,1.4-0.6,3.3-1.1,4.9c-0.3,0.8,0.9,3.1-1.6,2.2C230.5,72.6,230.4,71.2,229.9,70.1z"/>
		<path d="M148.9,49.1c0,7.5,0,14.9,0,22.3c-2.7-0.1-1.9-1.9-2-3.2c-0.1-1.5-0.2-2.9-0.2-4.4c-0.1-1.4-0.1-2.9-0.2-4.3
			c-0.1-1.4-0.3-2.8-0.3-4.2c0-1.8,0-3.5,0.2-5.2c0.1-0.4,1.1-0.7,1.7-1C148.3,49.2,148.5,49.2,148.9,49.1z"/>
		<path d="M190.5,74.2c0,0.3-0.5,0.8-0.6,0.8c-0.6-0.3-1.2-0.8-1.8-1.1c0,0,0-0.1,0-0.1c-0.1-0.9-0.2-1.8-0.3-2.6
			c-0.7,0.4-1.4,0.8-2.1,1.3c-1.8,1.2-7.2,0.5-8-1.1c-1.5-2.9-0.9-5.6,1.6-7.7c2-1.7,4.4-2,6.9-1.9c0.3,0,1.2,0.5,1.6,0.7
			c0.4,0.3,0.1-2.2,0.4-2.6c0.4,0.1,1.7-0.2,1.8,0.2C190.3,62.6,190.3,72.3,190.5,74.2z M179.4,69.5c0.5,1.2,1.6,1.7,2.8,1.8
			c1.5,0.1,3.1-0.5,4-1.7c2-2.5,2-4.2,0.2-5.4c-1.6-1.1-3-0.6-4.4,0.2c-1.3,0.8-1.9,1.2-2.6,2.4C178.9,67.7,179.2,69.1,179.4,69.5z"
			/>
	</g>
</g>
</svg>
