<?xml version="1.0" encoding="utf-8"?>
<!-- Generator: Adobe Illustrator 24.0.3, SVG Export Plug-In . SVG Version: 6.00 Build 0)  -->
<svg version="1.1" xmlns="http://www.w3.org/2000/svg" xmlns:xlink="http://www.w3.org/1999/xlink" x="0px" y="0px"
	 viewBox="0 0 240.72 166.68" style="enable-background:new 0 0 240.72 166.68;" xml:space="preserve">
<g id="mend">
	<path d="M29.48,91.14c-0.1-0.05,1.49-1.23,1.69-1.31c0.68-0.27,1.41-0.29,2.13-0.23c1.71,0.14,3.39,0.52,5.11,0.68
		c2.1,0.2,3.01,1,4.51,2.29c-0.63,0.38-1.29,1.1-1.9,1.06c-1.81-0.12-3.61-0.74-5.41-0.73c-0.51,0-1.05,1.47-1.5,2.31
		c-0.93,1.74-1.87,3.48-2.65,5.29c-0.2,0.47-0.02,1.41,0.34,1.78c1.66,1.66,3.43,3.21,5.2,4.75c0.53,0.46,1.18,0.77,1.88,1.21
		c-1.88,1.29-3.99,0.42-5.23-0.99c-1.3-1.48-2.96-2.65-4.55-3.82c-0.18-0.13-1.04,0.56-1.51,0.96c-2.72,2.32-5.42,4.71-9.28,4.68
		c-1.68-0.01-3.46,0.15-4.77-1.1c-0.82-0.79-1.32-1.86-1.68-2.94c-0.52-1.58-0.79-3.27-0.6-4.92c0.28-2.49,1.52-4.72,2.9-6.76
		c0.58-0.86,1.15-1.78,1.87-2.53c0.68-0.71,1.63-1.24,2.03-2.18c0.31-0.73-0.39-1.84-0.38-2.78c0.04-4.02,0.36-7.55,3.64-10.37
		c1.25-1.07,2.79-1.85,4.42-1.95c1.64-0.1,3.36,0.57,4.3,1.92c1.2,1.71,0.9,4.12-0.17,5.91c-1.83,3.07-5.37,5.02-7.98,7.35
		c-0.24,0.21-0.04,1.24,0.27,1.69c1.97,2.89,4,5.74,6.07,8.56c0.12,0.16,0.97,0.1,1.08-0.09c1.12-1.89,2.22-3.8,3.11-5.8
		c0.07-0.16-1.41-1.03-2.18-1.55C30.04,91.37,29.76,91.28,29.48,91.14z M18.41,106.96c3.26,0,6.34-1.77,8.63-4.98
		c0.15-0.21,0.26-0.64,0.15-0.79c-1.45-1.85-2.93-3.68-4.37-5.54c-0.73-0.95-1.45-1.9-2.14-2.88c-0.62-0.87-1-1.86-2.15-0.97
		c-3.65,2.81-4.36,7.13-3.97,11.46C14.76,105.49,15.16,107.14,18.41,106.96z M28.61,77.1c0.03-0.77-0.33-1.35-1.49-1.35
		c-1.78-0.01-2.9,0.7-3.87,1.6c-2.35,2.19-3.47,5.03-3.01,8.33c0.04,0.26,0.13,0.5,0.2,0.76c0.26-0.12,0.56-0.2,0.78-0.37
		c0.79-0.61,1.53-1.28,2.33-1.87c1.39-1.02,2.65-2.23,3.61-3.66C27.63,79.86,28.57,78.27,28.61,77.1z"/>
	<path d="M163.32,90.9c0-2.78-0.06-5.62,0.05-8.45c0.02-0.48-0.16-3.4,0.24-3.87c0.54,0.47,2.38-0.11,2.46,0.42
		c0.45,2.95,0.81,9.36,0.94,12.33c0.17,3.75,0.08,7.52,0.11,11.27c0.01,0.86-0.03,1.72,0.07,2.57c0.17,1.42-0.34,1.77-1.8,1.82
		c-1.75,0.07-1.53-0.86-1.59-1.95c-0.04-0.66-0.36-1.3-0.55-1.95c-0.38,0.19-0.79,0.34-1.15,0.56c-2.03,1.23-5.33,0.38-6.84-1.5
		c-2.15-2.69-2.21-5.55-1.18-8.62c0.72-2.15,3.93-3.9,6.11-3.33C161.19,90.47,162.21,90.66,163.32,90.9z M159.2,92.85
		c-1.7,0.4-2.72,1.52-3,3.25c-0.16,0.97-0.07,1.97,0.04,2.95c0.1,0.8,0.23,1.64,0.76,2.25c0.71,0.83,1.99,0.99,3,0.6
		c1.01-0.4,1.78-1.25,2.34-2.19c1.31-2.21,0.84-4.22-0.47-6.27C161.46,92.8,159.35,92.82,159.2,92.85z"/>
	<path d="M204.21,90.56c2.49,2.09,0.14,3.73-0.39,5.27c-1.77,5.15-3.85,10.19-5.96,15.21c-2.33,5.56-4.76,11.08-7.29,16.55
		c-0.25,0.54-1.53,0.6-2.34,0.88c0.16-0.78,0.2-1.6,0.49-2.33c1.42-3.63,2.9-7.23,4.37-10.84c1.1-2.69,2.2-5.39,3.33-8.07
		c0.5-1.17-0.83-4.21-1.96-5.55c-2.17-2.57-4.1-5.34-6.11-8.05c-0.08-0.11,0.01-0.5,0.07-0.52c0.42-0.08,1.04-0.3,1.26-0.1
		c1.32,1.19,2.6,2.42,3.78,3.74c1.52,1.71,2.93,3.52,4.39,5.28c0.05,0.06,0.24,0.1,0.25,0.08c0.25-0.44,0.52-0.87,0.73-1.33
		c0.93-2.02,1.85-4.04,2.77-6.07c0.49-1.08,0.91-2.19,1.49-3.23C203.31,91.09,203.86,90.84,204.21,90.56z"/>
	<path d="M65.53,140.14c-0.05,1.54,0.2,3.07,0.26,4.6c0.02,0.43-0.18,1.17-0.44,1.24c-0.88,0.25-1.79,0.29-2.04-1.01
		c-0.49-2.6-0.9-5.23-1.63-7.76c-0.28-0.97-0.9-2.47-2.15-2.4c-0.03,0-0.05,0.04-0.08,0.04c-2.29,0.02-2.87,2.45-2.95,3.19
		c-0.36,3.17,0.06,6.42,0.09,9.64c0,0.37-0.58,1.08-0.68,1.05c-0.64-0.24-1.72-0.58-1.76-0.99c-0.44-4.39-0.74-8.8-1.01-13.2
		c-0.02-0.32,0.44-0.88,0.77-0.98c1.98-0.55,0.83,1.57,1.45,1.45c0.57-0.11,0.88-2.11,3.37-2.24c2.43-0.13,3.28,0.24,4.79,2.36
		c0.08,0.11,0.54,0.08,0.71-0.05c1.21-0.91,2.42-2.65,3.57-2.61c2.14,0.07,4.39,0.69,5.83,2.88c1.74,2.65,2.27,5.53,2.44,8.58
		c0.04,0.62,0.24,1.24,0.26,1.86c0.01,0.32-0.1,0.84-0.31,0.95c-0.39,0.19-0.91,0.25-1.35,0.17c-2.63-0.51-1.79-2.76-1.96-4.34
		c-0.38-3.37-0.8-5.72-3.16-7.53c-0.93-0.71-2.15,0.01-2.77,0.84C65.54,137.61,65.54,139.81,65.53,140.14z"/>
	<path d="M135.36,133.2c-0.19-2.27-0.38-4.8-0.64-7.33c-0.18-1.79-0.52-3.56-0.63-5.35c-0.03-0.41,0.6-0.86,0.93-1.3
		c0.34,0.48,0.91,0.92,0.99,1.43c0.57,3.83,1.03,7.67,1.54,11.5c0.49,3.65,1.01,7.29,1.48,10.94c0.05,0.38,0.04,1-0.18,1.13
		c-0.46,0.29-1.12,0.52-1.59,0.4c-0.32-0.08-0.55-0.8-0.69-1.27c-0.17-0.59-0.21-1.21-0.25-1.45c-1.77,0.9-3.39,2.11-5.21,2.58
		c-4.38,1.13-8.01-0.46-9.51-5.39c-1.47-4.84,2.45-9.4,7.52-8.59C131.25,130.84,133.22,132.24,135.36,133.2z M134.64,138.13
		c0-2.63-3.48-5.98-6.3-5.75c-2.66,0.21-4.14,1.25-4.07,5.66c0.04,2.62,2.15,4.77,4.76,4.74
		C131.6,142.76,134.64,140.24,134.64,138.13z"/>
	<path d="M168.39,13.99c-0.51,0.8-1.01,1.36-1.25,2c-0.55,1.44-0.84,2.99-1.46,4.39c-2.17,4.86-4.4,9.69-6.69,14.5
		c-1.49,3.13-3.08,6.21-4.71,9.28c-0.14,0.27-0.86,0.22-1.31,0.35c-0.46,0.13-0.92,0.28-1.38,0.42c-0.2,0.06-0.41,0.11-0.62,0.16
		c0.01-0.3-0.1-0.67,0.04-0.9c1.52-2.69,3.23-5.29,4.57-8.06c1.27-2.62,2.18-5.42,3.2-8.16c0.06-0.17-0.18-0.51-0.36-0.69
		c-1.23-1.24-2.54-2.41-3.71-3.71c-1.96-2.18-3.85-4.42-5.74-6.67c-0.17-0.2-0.18-0.72-0.04-0.96c0.77-1.29,1.76-1.25,2.71-0.22
		c1.1,1.2,2.14,2.46,3.19,3.7c1.54,1.82,3.05,3.67,4.63,5.46c0.15,0.17,0.71,0.11,0.99-0.03c0.23-0.12,0.35-0.5,0.47-0.79
		c1.48-3.28,2.91-6.58,4.46-9.83c0.3-0.62,0.95-1.2,1.58-1.47C167.2,12.66,167.83,13.49,168.39,13.99z"/>
	<path d="M114.77,24.15c-1.69-1.89-1.89-4.75-1.27-7.12c0.6-2.27,2.82-3.62,4.99-4.07c1.15-0.24,2.36-0.27,3.51-0.03
		c0.88,0.19,2.6,1.75,2.7,0.45c0.07-0.89-0.06-2.61-0.1-3.52c-0.04-1.03-0.26-2.5,0.06-3.49c0.12-0.36,1.83-1.7,1.82-1.72
		c0.24,0.62,0.67,1.24,0.68,1.87c0.04,4.8-0.03,9.6,0.01,14.4c0.01,1.53,0.24,3.05,0.32,4.58c0.01,0.23-0.38,0.71-0.47,0.68
		c-0.49-0.16-1.23-0.26-1.59-0.68c-0.52-0.6,0.08-2.47-0.95-2c-1.55,0.71-3.17,1.84-4.86,2.11c-1.29,0.2-3.03,0.05-4.09-0.76
		C115.25,24.64,114.99,24.4,114.77,24.15z M123.49,15.77c-0.31-0.24-0.76-0.86-1.33-0.99c-2.61-0.62-6.22,2.31-6.26,4.97
		c-0.03,2.25,0.81,3.08,2.83,2.82C121.94,22.14,123.45,20.12,123.49,15.77z"/>
	<path d="M70.63,101.04c1.31,1.77,0.17,3.98-2.61,5.12c-1.53,0.63-4.59,0.03-5.83-0.91c-3.72-2.79-3.78-6.4-2.9-10.16
		c0.71-3.01,4.43-5.51,7.74-5.2c1.98,0.19,3.03,1.6,3.79,3.15c0.4,0.82,0.98,1.56,1.34,2.39c0.16,0.38,0.17,1.06-0.1,1.28
		c-0.48,0.4-1.21,0.77-1.85,0.79c-2.57,0.06-5.14-0.05-7.71-0.01c-0.35,0-0.92,0.44-0.99,0.75c-0.53,2.33,0.25,4.5,2.4,5.71
		c0.96,0.54,2.99,0.03,4.28-0.5C69.21,103.04,69.83,101.88,70.63,101.04z M69.4,95.68c-0.13-0.44-0.23-0.76-0.33-1.08
		c-0.51-1.52-0.66-3.34-3.26-3.14c-1.6,0.12-4.15,2.83-3.98,4.27c0.01,0.1,0.3,0.26,0.46,0.26c1.59-0.09,3.18-0.22,4.77-0.3
		C67.81,95.65,68.58,95.68,69.4,95.68z"/>
	<path d="M184.83,105.7c0,0.5-0.24,1.39-0.48,1.42c-0.81,0.13-1.71,0.1-2.47-0.18c-0.25-0.09-0.18-1.13-0.19-1.73
		c-0.01-0.59,0.07-1.18,0.1-1.77c-0.54,0.21-1.1,0.38-1.61,0.65c-3.13,1.68-7.94-0.47-8.85-3.93c-0.95-3.6-0.17-6.71,2.54-9.24
		c1.81-1.69,5.18-1.96,7.32-0.79c0.22,0.12,1.17,0.57,1.39,0.44c0.47-0.28,0.33-1.11,0.76-1.46c0,0,1.37-0.54,1.67,0.11
		C185.1,89.42,184.86,101.04,184.83,105.7z M180.41,93.31c-1.08-1.25-4.59-1.58-5.6,0.17c-1.42,2.48-1.49,4.92,0.15,7.06
		c0.76,1,2.71,2,3.75,1.69c2.03-0.59,3.17-2.49,3.16-4.8C181.86,96.73,181.75,94.92,180.41,93.31z"/>
	<path d="M130.87,102.9c-0.75-0.84-1.6-1.68-2.32-2.62c-1.99-2.57-3.95-5.16-5.84-7.79c-0.24-0.33-0.04-0.96-0.05-1.45
		c0.57,0.24,1.33,0.33,1.69,0.76c2.39,2.83,4.69,5.74,7.05,8.58c0.09,0.11,0.79-0.04,0.89-0.23c1.43-2.8,2.78-5.64,4.24-8.42
		c0.14-0.26,1-0.4,1.32-0.23c0.33,0.18,0.68,0.92,0.56,1.23c-1.09,2.7-2.23,5.38-3.47,8.02c-0.9,1.92-2.05,3.73-2.97,5.64
		c-0.95,1.96-1.72,4-2.63,5.97c-1.12,2.4-2.3,4.77-3.46,7.15c-0.75-0.41-2.1,1.29-2.39-0.67c-0.04-0.28,0.17-0.6,0.31-0.89
		c2.07-4.31,4.14-8.61,6.21-12.91C130.29,104.41,130.52,103.76,130.87,102.9z"/>
	<path d="M84.46,14.26c3.79,1.18,5.75,4.05,7.92,6.69c0.08,0.1,0.71-0.02,0.85-0.22c1.49-2.02,2.92-4.1,4.43-6.1
		c0.25-0.33,0.83-0.4,1.26-0.6c0.16,0.61,0.65,1.41,0.42,1.79C97.98,18.09,87.4,34.19,84.5,38.55c-0.24,0.36-0.75,0.54-1.14,0.8
		c-0.16-1.04-0.81-2.38-0.4-3.09c2.18-3.72,4.63-7.28,6.99-10.89c0.19-0.3,0.46-0.54,0.7-0.81c1.86-2.05-0.47-2.65-1.34-3.63
		c-1.53-1.71-3.27-3.24-4.81-4.93C84.23,15.71,84.46,14.96,84.46,14.26z"/>
	<path d="M101.92,132.11c2.42-2.13,5.21-2.51,7.79-1.57c1.39,0.5,2.73,2.29,3.25,3.79c0.78,2.25,0.62,4.81,1.24,7.14
		c0.51,1.94-0.56,2.49-1.87,2.46c-0.45-0.01-1.01-1.55-1.27-2.46c-0.67-2.28-1.04-4.66-1.87-6.87c-0.28-0.73-1.59-1.48-2.45-1.5
		c-1.8-0.03-3.26,0.92-3.48,2.9c-0.23,2.05-0.22,4.12-0.41,6.17c-0.04,0.43-0.66,1.2-0.78,1.15c-0.59-0.22-1.51-0.59-1.56-1.01
		c-0.21-1.69-0.08-3.41-0.21-5.12c-0.15-1.89-0.51-3.77-0.64-5.66c-0.04-0.51,0.44-1.06,0.68-1.59c0.36,0.22,0.84,0.36,1.06,0.68
		C101.68,131.02,101.75,131.57,101.92,132.11z"/>
	<path d="M91.07,96.76c0.75-2.63,0.52-5.06,2.95-5.86c1.25-0.41,2.71-0.29,4.07-0.27c2.85,0.05,4.2,1.94,5.13,4.33
		c0.58,1.48-0.45,3.08-2.05,3.03c-2.07-0.05-4.13-0.14-6.2-0.14c-0.21,0-0.65,0.59-0.59,0.75c0.78,2.11,1.96,4.09,4.34,4.28
		c1.01,0.08,2.13-1.2,3.19-1.87c0.1-0.06,0.14-0.2,0.24-0.26c0.02-0.02,0.18,0.09,0.21,0.17c0.23,0.7,0.86,1.7,0.6,2.07
		c-2.67,3.83-6.72,2.74-9.21-0.55C92.42,100.68,91.8,98.37,91.07,96.76z M100.61,96.03c-1.21-1.45-2.06-2.78-3.22-3.7
		c-0.46-0.37-1.97-0.13-2.41,0.37c-0.62,0.7-0.7,1.89-1.01,2.87c0.65,0.15,1.3,0.4,1.96,0.44C97.25,96.08,98.56,96.03,100.61,96.03z
		"/>
	<path d="M55.81,20.76c0.56-3.09,0.35-6.53,3.98-8.23c2.35-1.1,7.01,1.34,7.18,3.93c0.08,1.17-0.01,2.36-0.09,3.54
		c-0.02,0.21-0.4,0.59-0.6,0.58C63.85,20.42,61.43,20.2,59,20c-0.2-0.02-0.58,0-0.59,0.05c-0.14,0.69-0.56,1.66-0.26,2.04
		c1.07,1.33,2.23,3.06,3.68,3.45c1.07,0.29,2.63-1.29,3.99-1.99c0.53-0.28,1.09-0.52,1.67-0.64c0.21-0.04,0.74,0.39,0.72,0.55
		c-0.07,0.56-0.16,1.26-0.53,1.63c-2.92,2.93-5.55,3.48-8.62,1.5C57.06,25.31,55.43,23.55,55.81,20.76z M63.95,18.77
		c0.37-0.37,1.12-0.95,1.05-1.07c-0.59-1.05-1.23-2.1-2.05-2.96c-0.4-0.41-1.47-0.78-1.79-0.55c-0.92,0.67-1.74,1.57-2.33,2.54
		c-0.31,0.51-1.02,1.78,0.65,1.78C60.86,18.5,63.84,18.61,63.95,18.77z"/>
	<path d="M146.48,27.35c0.02,0.27-0.52,0.83-0.56,0.81c-0.61-0.34-1.18-0.75-1.76-1.14c-0.02-0.01,0-0.08-0.01-0.12
		c-0.11-0.88-0.22-1.75-0.34-2.63c-0.72,0.43-1.45,0.84-2.15,1.29c-1.83,1.2-7.19,0.47-8.02-1.1c-1.51-2.87-0.92-5.58,1.64-7.72
		c2.01-1.68,4.38-1.95,6.87-1.9c0.34,0.01,1.25,0.46,1.57,0.71c0.37,0.29,0.06-2.25,0.36-2.61c0.42,0.13,1.73-0.18,1.8,0.24
		C146.28,15.7,146.32,25.46,146.48,27.35z M135.39,22.6c0.5,1.15,1.55,1.7,2.84,1.82c1.46,0.13,3.1-0.54,4-1.71
		c1.96-2.53,1.96-4.21,0.2-5.45c-1.59-1.12-2.96-0.59-4.36,0.22c-1.34,0.77-1.89,1.19-2.64,2.42
		C134.87,20.84,135.23,22.22,135.39,22.6z"/>
	<path d="M166.35,135.47c-0.15-2.09-0.1-4.21-0.41-5.64c-0.11-0.5-1.48-0.67-2.2-1.1c-0.46-0.27-0.8-0.75-1.19-1.13
		c0.4-0.18,0.78-0.45,1.2-0.53c0.66-0.14,1.88,0.88,1.93-0.23c0.09-1.83,0.05-3.66,0-5.48c-0.01-0.28-0.32-4.21,0.7-3.56
		c0.37,0.24,0.87,0.61,0.91,0.97c0.22,1.9,0.44,3.81,0.53,5.73c0.08,1.68,0.08,1.68,0.25,2.65c0.1,0.57,3.1-0.14,3.68-0.13
		c0.24,0.01,2.02,0.48,1.91,0.6c-0.52,0.53-0.97,1.35-1.59,1.52c-1.07,0.3-2.26,0.18-3.4,0.29c-0.14,0.01-0.37,0.3-0.36,0.44
		c0.29,2.83,0.46,5.67,1,8.45c0.17,0.87,2.14,3.32,3.72,0.59c0.27-0.47,1.03-0.44,1.56-0.65c-0.07,0.78,0.08,1.68-0.26,2.31
		c-0.9,1.68-2.46,2.33-4.29,1.82C167.2,141.6,166.56,138.55,166.35,135.47z"/>
	<path d="M46.18,63.84c0.88,1.19-0.45,1.89-1.37,2.51c-1.75,1.18-3.53,0.81-4.95-0.64c-1.32-1.34-2.51-3.05-2.93-4.9
		c-0.34-1.51-0.55-3.05-0.71-4.6c-0.08-0.7-0.11-1.43-0.24-2.11c-0.2-1-0.68-1.97-0.68-1.97c-1.11-0.03-3.63,0.7-3.63-0.44
		c0.44-0.26,0.86-0.69,1.32-0.74c0.78-0.09,1.85-0.14,2.34-0.86c0.68-1.01,0.28-2.77,0.44-3.94c0.11-0.78,0.35-1.54,0.6-2.29
		c0.11-0.35,0.28-0.75,0.64-0.84c0.73,0.86,0.96,2.05,0.99,3.18c0.02,0.69-0.53,3.98,0.59,4.02c1.22,0.04,2.44-0.05,3.65,0.06
		c0.36,0.03,0.68,0.56,1.02,0.86c-0.76,0.45-1.19,0.73-2.11,0.73c-0.77,0-2.04-0.4-2.73,0.05c-0.59,0.39-0.43,1.23-0.28,1.81
		c0.71,2.82,1.13,5.71,1.89,8.52c0.24,0.88,1.08,2.17,1.77,2.24C43.18,64.64,44.65,64.1,46.18,63.84z"/>
	<path d="M28.59,145.55c0-4.06,0.07-8.13-0.02-12.19c-0.08-3.19-0.4-6.37-0.51-9.57c-0.02-0.46,0.54-0.93,0.83-1.4
		c0.64,0.41,1.81,0.8,1.83,1.24c0.28,6.06,0.43,12.13,0.56,18.19c0.04,2.11-0.02,4.22-0.14,6.32c-0.02,0.37-0.63,1.03-0.91,1
		c-0.55-0.06-1.38-0.41-1.52-0.83c-0.28-0.86-0.19-1.85-0.25-2.78C28.51,145.55,28.55,145.55,28.59,145.55z"/>
	<path d="M87.46,90.38c0-0.01,0.09,0.2,0.15,0.33c0.3-0.06,0.52-0.11,0.74-0.15c-0.02,0.51,0.14,1.1-0.07,1.5
		c-1.78,3.43-3.62,6.82-5.43,10.23c-0.41,0.77-0.77,1.56-1.17,2.32c-0.08,0.15-0.3,0.35-0.42,0.33c-0.65-0.11-1.7-0.1-1.87-0.46
		c-1.37-3.06-2.53-6.21-3.86-9.29c-0.56-1.29-1.42-2.44-2.07-3.7c-0.1-0.19,0.15-0.82,0.31-0.85c1.02-0.19,1.81-0.22,2.26,1.19
		c0.61,1.91,1.7,3.66,2.56,5.49c0.52,1.1,0.99,2.22,1.5,3.33c0.11,0.23,0.29,0.43,0.44,0.65c0.18-0.22,0.41-0.41,0.54-0.65
		c1.65-3.08,3.26-6.18,4.96-9.23C86.28,90.93,86.98,90.7,87.46,90.38z"/>
	<path d="M46.97,20.51c1.23-2.6,2.4-5.18,3.71-7.67c0.16-0.3,1.15-0.19,1.75-0.18c0.05,0,0.24,0.74,0.12,1.04
		c-1.3,3.25-2.6,6.5-4,9.7c-0.37,0.85-1.07,1.55-1.62,2.32c-0.56-0.48-1.38-0.84-1.63-1.45c-1.43-3.36-2.73-6.77-4.03-10.18
		c-0.07-0.18,0.32-0.78,0.45-0.76c0.72,0.07,1.85,0.06,2.08,0.48c1.13,2.09,2.01,4.31,2.99,6.48C46.82,20.4,46.95,20.48,46.97,20.51
		z"/>
	<path d="M111.39,96.09c0.3,2.53,0.57,4.64,0.78,6.75c0.04,0.37-0.18,0.76-0.28,1.14c-0.63-0.18-1.75-0.27-1.8-0.55
		c-0.44-2.46-0.72-4.95-0.98-7.44c-0.12-1.17-0.1-2.36-0.07-3.55c0.01-0.29,0.23-0.79,0.44-0.83c1.79-0.37,3.58-0.81,5.39-0.94
		c2.04-0.15,4.48,2.35,4.48,4.39c0,0.22-0.4,0.65-0.52,0.62c-0.65-0.18-1.38-0.35-1.88-0.76c-0.87-0.71-1.51-2.14-2.39-2.26
		c-0.78-0.1-1.84,1.07-2.58,1.86C111.54,94.99,111.49,95.8,111.39,96.09z"/>
	<path d="M71.64,21.29c0-2.39-0.03-4.78,0.04-7.17c0.01-0.21,0.62-0.5,0.99-0.59c0.63-0.15,1.3-0.21,1.95-0.22
		c2.1-0.05,4.2-0.16,6.29,0.02c0.37,0.03,0.63,1.32,0.94,2.03c-0.76-0.09-1.65,0.04-2.24-0.31c-1.99-1.2-3.59-0.49-4.59,1.13
		c-0.72,1.17-0.83,2.77-1.01,4.2c-0.22,1.74-0.21,3.52-0.39,5.27c-0.02,0.19-0.73,0.55-0.86,0.46c-0.47-0.33-1.11-0.77-1.17-1.25
		c-0.17-1.17-0.05-2.39-0.05-3.59C71.58,21.29,71.61,21.29,71.64,21.29z"/>
	<path d="M27.95,59.22c0,1.87,0.1,3.75-0.05,5.61c-0.06,0.72-0.6,1.45-1.05,2.08c-0.12,0.17-1.04,0.07-1.1-0.1
		c-0.24-0.63-0.38-1.33-0.38-2.01c0-1.82-0.05-6.37,0-8.19c0.05-1.7,2.31-1.87,2.43,0.21c0.01,0.23,0.29,2.39,0.11,2.39
		C27.93,59.22,27.94,59.22,27.95,59.22z"/>
	<path d="M158.64,132.23c-0.73,4.64-1.24,8.06-1.87,11.45c-0.06,0.31-0.88,0.74-1.26,0.67c-0.37-0.07-0.93-0.74-0.9-1.1
		c0.27-2.63,0.65-5.25,1.04-7.86c0.15-0.98,0.37-1.97,0.67-2.92c0.08-0.28,0.54-0.65,0.79-0.62
		C157.84,131.93,158.55,132.2,158.64,132.23z"/>
	<path d="M184.48,138.15c1.55-0.27,2.04,0.73,2.13,2.05c0.11,1.63-1.53,3.84-2.87,3.72c-0.92-0.08-2.51-0.45-2.58-0.89
		C180.68,140.11,182.05,138,184.48,138.15z"/>
	<path d="M25.23,48.65c-0.21-0.3-0.29-0.65-0.24-1.1c0.13-1.14,0.84-2.13,2.09-1.92c0.84,0.14,2.02,1.25,2.09,2.02
		c0.07,0.74-0.59,1.45-1.18,1.79c-0.83,0.49-1.52,0.21-2.27-0.31C25.52,48.99,25.35,48.83,25.23,48.65z"/>
	<path d="M156.51,126.69c-3.49-1.39,0.71-6.54,1.7-2.2C158.41,125.36,157.66,127.15,156.51,126.69z"/>
	<path d="M38.29,22.68c1.25,1.62,0.16,3.66-2.48,4.71c-1.45,0.58-4.36,0.02-5.54-0.84c-3.53-2.57-3.59-5.89-2.75-9.34
		c0.67-2.77,4.21-5.07,7.35-4.78c1.88,0.17,2.88,1.47,3.6,2.9c0.38,0.75,0.93,1.44,1.27,2.2c0.15,0.35,0.16,0.98-0.09,1.18
		c-0.46,0.37-1.15,0.71-1.75,0.72c-2.44,0.06-4.88-0.04-7.32-0.01c-0.33,0-0.87,0.41-0.94,0.69c-0.51,2.15,0.24,4.14,2.28,5.25
		c0.91,0.5,2.84,0.02,4.06-0.46C36.94,24.52,37.53,23.45,38.29,22.68z M37.12,17.75c-0.13-0.4-0.22-0.7-0.32-0.99
		c-0.48-1.4-0.63-3.07-3.09-2.88c-1.52,0.11-3.94,2.6-3.78,3.92c0.01,0.09,0.29,0.24,0.43,0.23c1.51-0.08,3.02-0.2,4.53-0.28
		C35.61,17.72,36.34,17.75,37.12,17.75z"/>
	<path d="M94.21,140.8c1.38,1.89,0.18,4.25-2.75,5.46c-1.61,0.67-4.83,0.03-6.14-0.97c-3.91-2.98-3.98-6.83-3.05-10.84
		c0.74-3.21,4.66-5.88,8.14-5.55c2.08,0.2,3.19,1.71,3.99,3.36c0.42,0.87,1.03,1.67,1.41,2.55c0.17,0.4,0.17,1.13-0.1,1.37
		c-0.51,0.43-1.27,0.82-1.94,0.84c-2.7,0.06-5.41-0.05-8.11-0.01c-0.36,0.01-0.96,0.47-1.04,0.8c-0.56,2.49,0.26,4.8,2.53,6.09
		c1.01,0.58,3.14,0.03,4.5-0.53C92.71,142.93,93.37,141.69,94.21,140.8z M92.91,135.08c-0.14-0.46-0.24-0.81-0.35-1.15
		c-0.53-1.62-0.69-3.56-3.43-3.35c-1.68,0.13-4.37,3.02-4.19,4.55c0.01,0.11,0.32,0.28,0.48,0.27c1.67-0.09,3.34-0.23,5.02-0.32
		C91.24,135.04,92.05,135.08,92.91,135.08z"/>
</g>
<g id="falls_x5F_apart">
	<path d="M66.93,51.82c3.71,0.13,3.24-0.48,4.11-3.58c0.65-2.34,1.82-4.15,4.02-4.96c1.1-0.4,2.79-0.44,3.65,0.16
		c0.71,0.5,0.67,2.17,0.81,3.34c0.05,0.41-0.31,0.87-0.48,1.31c-0.95-0.91-1.74-1.66-2.2-2.94c-0.12-0.34-2.38,1.68-2.53,1.89
		c-0.69,0.95-0.89,2.08-1.26,3.17c-0.09,0.27-0.04,0.87,0.04,0.88c0.68,0.13,1.39,0.12,2.07,0.25c0.58,0.11,1.17,0.3,1.7,0.56
		c0.16,0.08,0.26,0.7,0.23,0.71c-0.5,0.23-1.02,0.54-1.54,0.55c-3.55,0.08-3.81,0.4-4.53,4.4c-0.68,3.78-1.57,7.53-2.35,11.3
		c-0.51,2.45-0.68,5.03-1.55,7.34c-0.65,1.71-2.02,3.27-3.41,4.52c-0.72,0.64-2.57,1-3.23,0.53c-1.8-1.27-3.73-2.81-3.18-5.5
		c0.12-0.6,0.82-1.08,1.25-1.61c0.32,0.39,0.81,0.74,0.94,1.19c0.28,1.03,0.15,3.37,1.23,3.99c0.59,0.34,1.32-0.05,1.88-0.44
		c0.39-0.27,0.77-0.55,1.06-0.92c1.13-1.43,1.34-4.16,1.75-5.88c1.42-6.01,3.14-12.16,4.01-18.27c0.01-0.06-0.97-0.3-1.5-0.4
		c-0.52-0.11-1.12-0.03-1.56-0.26c-0.33-0.18-0.47-0.72-0.7-1.11C66.24,51.95,66.82,51.84,66.93,51.82z"/>
	<path d="M162.15,62.61c-1.78-0.58-2.24,0.4-2,2.27c0.38,3.06,0.66,6.13,0.96,9.21c0.02,0.2-0.22,0.61-0.29,0.6
		c-0.69-0.11-1.88-0.15-1.95-0.46c-0.35-1.45-0.35-2.99-0.57-4.48c-0.46-3.19-1.07-6.37-1.43-9.57c-0.24-2.11-0.17-4.26-0.2-6.39
		c-0.01-0.68,0.04-1.36,0.14-2.03c0.03-0.2,0.31-0.4,0.53-0.5c0.1-0.05,0.39,0.11,0.47,0.24c0.87,1.44,1.86,1.03,3.26,0.68
		c1.6-0.4,3.51-0.26,5.11,0.23c1.94,0.59,3.5,2.08,3.55,4.31c0.09,3.95-1.86,5.82-5.83,5.89C163.41,62.61,162.93,62.61,162.15,62.61
		z M162.86,53.72c-2.08-0.03-3.82,1.63-3.59,3.82c0.15,1.36,0.14,3.32,2.24,3.43c3.3,0.18,5.79-1.33,5.81-3.31
		C167.35,55.34,165.56,53.76,162.86,53.72z"/>
	<path d="M212.28,43.74c0,1.31,0.02,1.95,0,2.58c-0.09,2.17,0.67,2.53,3.57,2.32c1.3-0.09,2.64,0.51,3.96,0.79
		c-0.17,0.35-0.31,0.99-0.53,1.02c-2.01,0.27-4.05,0.39-6.05,0.7c-0.34,0.05-0.84,0.77-0.83,1.18c0.04,3.16-0.03,6.34,0.4,9.46
		c0.23,1.63,1.32,3.18,2.21,4.66c0.22,0.36,1.24,0.54,1.73,0.36c0.76-0.28,1.55-0.82,2-1.47c0.39-0.57,0.27-1.47,0.49-2.18
		c0.11-0.34,0.43-0.75,0.75-0.87c0.32-0.11,0.91-0.03,1.11,0.2c0.25,0.29,0.42,0.91,0.27,1.23c-0.72,1.59-1.21,3.53-2.43,4.6
		c-1.92,1.67-5.1,0.68-6.71-2.1c-1.07-1.85-1.68-4.08-1.98-6.21c-0.33-2.38-0.06-4.85-0.09-7.27c-0.02-1.87-1.49-1.04-2.41-1.33
		c-0.74-0.23-1.37-0.8-2.06-1.23c0.66-0.39,1.37-1.17,1.98-1.11c2.54,0.29,2.43-1.17,2.32-2.93c-0.09-1.49,0.09-2.99,0.19-4.49
		c0.01-0.12,0.36-0.35,0.44-0.31c0.49,0.24,1.16,0.44,1.35,0.86C212.29,42.84,212.27,43.65,212.28,43.74z"/>
	<path d="M185.8,66.11c-0.72-0.94-1.43-1.88-2.15-2.84c-0.68,0.3-1.81,0.87-2.98,1.29c-2.71,0.97-5.56-0.68-6.38-3.54
		c-0.72-2.5-0.58-4.9,0.65-7.19c1.08-2,3.66-2.54,6.62-1.49c0.24,0.09,0.5,0.14,0.74,0.24c0.59,0.27,1.39,1.12,1.07-0.57
		c-0.06-0.32,0.97-0.84,1.5-1.27c0.27,0.36,0.76,0.71,0.79,1.09c0.31,4.13,0.56,8.26,0.81,12.4c0.03,0.49-0.09,0.99-0.14,1.48
		C186.15,65.84,185.98,65.97,185.8,66.11z M178.84,62.35c1.82,0.11,3.7-3.2,3.84-5.51c0.09-1.52-1.67-3.42-3.07-3.44
		c-2.13-0.04-3.47,1.78-3.58,4.87C175.95,60.44,177.25,62.32,178.84,62.35z"/>
	<path d="M123.35,50.83c-0.2-0.73-0.44-1.48-0.49-1.64c-0.27-0.87-0.72-2.14-1.62-2.57c-1.07-0.52-2.19,1.49-2.39,2.34
		c-0.74,3.2,1.48,4.76,3.81,6.2c1.94,1.2,3.57,2.56,3.09,5.27c-0.43,2.44-3.92,4.38-6.17,3.29c-2.61-1.27-3.93-3.64-3.29-6.48
		c0.1-0.43,1.39-0.63,2.16-0.83c0.09-0.02,0.41,0.68,0.53,1.08c0.27,0.89,0.82,5.42,2.7,4.36c1.18-0.67,1.51-2.76,0.84-3.84
		c-0.66-1.06-1.92-1.64-2.88-2.38c-4.04-3.1-4.83-7.13-1.13-10.81c0.9-0.89,4.08-0.11,5.26,1.4c1.19,1.53,2.15,3.24,0.98,5.25
		C124.62,51.71,123.55,51.56,123.35,50.83z"/>
	<path d="M91.38,60.56c-2.84,2.62-5.57,2.48-8.36,0.71c-1.73-1.09-2.31-5.24-1.49-7.09c1.49-3.36,4.28-3.61,7.29-3.61
		c0.29,0,0.56,0.22,0.86,0.29c1.87,0.44,0.77-1.24,1.26-1.8c0.19-0.22,0.38-0.73,0.46-0.71c0.59,0.16,1.63,0.39,1.65,0.65
		c0.33,4.74,0.56,9.49,0.72,14.24c0.02,0.53-1.77,0.8-1.92,0.3C91.59,62.67,91.55,61.72,91.38,60.56z M83.53,56.52
		c0,0.44-0.08,0.9,0.01,1.31c0.42,1.75,1.02,3.43,3.31,2.81c1.68-0.46,3.01-1.37,3.65-3.41c0.94-2.98-0.15-5.05-3.11-4.84
		C84.63,52.59,83.53,53.76,83.53,56.52z"/>
	<path d="M101.14,64.61c-3.45-1.34-1.91-3.98-1.91-6.04c0-4.67,0.21-9.33,0.35-14c0.03-1.02-0.04-2.09,0.23-3.05
		c0.11-0.4,0.96-0.73,1.51-0.81c0.19-0.03,0.72,0.82,0.72,1.27c0.04,3.49,0.03,6.97-0.06,10.46c-0.05,2.05-0.28,8.53-0.33,9.72
		C101.62,62.94,101.34,63.7,101.14,64.61z"/>
	<path d="M191.9,61.1c0-2.43-0.02-5.07,0.03-7.7c0.01-0.35,0.43-0.99,0.61-0.97c0.61,0.07,1.2,0.37,1.81,0.57
		c0.22,0.07,0.55,0.2,0.69,0.1c1.26-0.9,2.46-1.63,4.15-0.91c0.99,0.42,2.19,0.32,3.22,0.68c0.53,0.18,0.99,0.8,1.3,1.33
		c0.21,0.37,0.1,0.92,0.13,1.4c-0.53-0.03-1.21,0.14-1.58-0.12c-2.72-1.94-4.67-1.73-6.49,1.31c-0.81,1.36-0.6,3.29-1.15,4.86
		c-0.28,0.81,0.88,3.09-1.56,2.17C192.49,63.58,192.36,62.23,191.9,61.1z"/>
	<path d="M110.91,40.12c0,7.49,0,14.92,0,22.3c-2.7-0.12-1.94-1.87-2.01-3.2c-0.08-1.45-0.17-2.9-0.24-4.35
		c-0.07-1.43-0.09-2.86-0.17-4.29c-0.08-1.39-0.27-2.77-0.29-4.15c-0.02-1.75-0.03-3.51,0.21-5.23c0.05-0.39,1.13-0.65,1.74-0.95
		C110.29,40.19,110.46,40.2,110.91,40.12z"/>
	<path d="M152.46,65.23c0.02,0.27-0.52,0.83-0.56,0.81c-0.61-0.34-1.18-0.75-1.76-1.14c-0.02-0.01,0-0.08-0.01-0.12
		c-0.11-0.88-0.22-1.75-0.34-2.63c-0.72,0.43-1.45,0.84-2.15,1.29c-1.83,1.2-7.19,0.47-8.02-1.1c-1.51-2.87-0.92-5.58,1.64-7.72
		c2.01-1.68,4.38-1.95,6.87-1.9c0.34,0.01,1.25,0.46,1.57,0.71c0.37,0.29,0.06-2.25,0.36-2.61c0.42,0.13,1.73-0.18,1.8,0.24
		C152.26,53.58,152.31,63.34,152.46,65.23z M141.38,60.47c0.5,1.15,1.55,1.7,2.84,1.82c1.46,0.13,3.1-0.54,4-1.71
		c1.96-2.53,1.96-4.21,0.2-5.45c-1.59-1.12-2.96-0.59-4.36,0.22c-1.34,0.77-1.89,1.19-2.64,2.42
		C140.85,58.72,141.22,60.1,141.38,60.47z"/>
</g>
</svg>
